<svg xmlns="http://www.w3.org/2000/svg" xmlns:xlink="http://www.w3.org/1999/xlink" xmlns:lucid="lucid" width="1117" height="464.88"><g transform="translate(-380.83333333333337 -365.55905511407764)" lucid:page-tab-id="0_0"><path d="M592.07 385.56h140v60h-140z" stroke="#000" stroke-width="2" fill="#fff"/><path d="M572.07 390.56h40v20h-40zM572.07 420.56h40v20h-40z" stroke="#000" stroke-width="2" fill="#fff"/><use xlink:href="#a" transform="matrix(1,0,0,1,604.0695538058256,391.55905511407764) translate(14.100000000000001 27.6)"/><path d="M412.83 501.95H613.9M412.86 501.95h-1.03" stroke="#000" stroke-width="2" fill="none"/><path d="M629.16 501.95l-14.27 4.64v-9.28z" stroke="#000" stroke-width="2"/><use xlink:href="#b" transform="matrix(1,0,0,1,471.76369352409904,476.35348202689977) translate(0.005000000000002558 14.4)"/><path d="M630.07 638.1h-1.96v-2h1.97zm-9.8 0h-3.9v-2h3.9zm-11.74 0h-3.92v-2h3.93zm-11.75 0h-3.92v-2h3.92zm-11.75 0h-3.9v-2h3.9zm-11.75 0h-3.9v-2h3.9zm-94 0h-3.9v-2h3.9zm-11.74 0h-3.92v-2h3.92zm-11.75 0h-3.92v-2h3.9zm-11.76 0h-3.9v-2h3.9zm-11.75 0h-1.96v-2h1.95zm129.23 0h-2.13v-2h2.13z"/><path d="M631.07 638.1h-1.03v-2h1.03zM429.34 641.74l-14.27-4.63 14.27-4.63z"/><path d="M430.34 643.12l-18.5-6 18.5-6.02zm-12.03-6l10.04 3.25v-6.52z"/><use xlink:href="#c" transform="matrix(1,0,0,1,483.5014435695795,626.3076115525892) translate(0.005000000000002558 14.4)"/><path d="M632.07 505.68c0-2.76 2.24-5 5-5h30c2.76 0 5 2.24 5 5v139.76c0 2.76-2.24 5-5 5h-30c-2.76 0-5-2.24-5-5z" stroke="#000" stroke-width="2" fill-opacity="0"/><path d="M652.07 447.56v51.12" stroke="#000" stroke-width="2" fill="none"/><path d="M653.07 447.58h-2v-1.02h2z"/><path d="M652.07 498.65v1.03" stroke="#000" stroke-width="2" fill="none"/><path d="M856.83 490.44h140v60h-140z" stroke="#000" stroke-width="2" fill="#fff"/><path d="M836.83 495.44h40v20h-40zM836.83 525.44h40v20h-40z" stroke="#000" stroke-width="2" fill="#fff"/><use xlink:href="#d" transform="matrix(1,0,0,1,868.833333333217,496.44094488592236) translate(13.049999999999997 16.799999999999997)"/><use xlink:href="#e" transform="matrix(1,0,0,1,868.833333333217,496.44094488592236) translate(93.95 16.799999999999997)"/><use xlink:href="#f" transform="matrix(1,0,0,1,868.833333333217,496.44094488592236) translate(21.549999999999997 38.4)"/><path d="M896.83 592.77c0-2.76 2.24-5 5-5h30c2.76 0 5 2.24 5 5v30.88c0 2.76-2.24 5-5 5h-30c-2.76 0-5-2.24-5-5z" stroke="#666" stroke-width="2" fill-opacity="0"/><path d="M894.02 609.2h-3.87v-2h3.87zm-11.6 0h-7.75v-2h7.74zm-15.5 0h-7.72v-2h7.73zm-160.32 0h-2.16v-2h2.16zm-9.9 0h-3.87v-2h3.87z" fill="#999"/><path d="M895.83 608.2l-18.67 11.05-1.02-1.72 15.76-9.32-15.76-9.3 1.02-1.73zM692.86 609.2h-1.03v-2h1.03z" fill="#999"/><use xlink:href="#g" transform="matrix(1,0,0,1,706.6000000000001,597.4099737606186) translate(0.0049999999999954525 14.4)"/><use xlink:href="#h" transform="matrix(1,0,0,1,706.6000000000001,597.4099737606186) translate(30.004999999999995 14.4)"/><path d="M916.83 585.77v-11.1m0-11.12v-11.1" stroke="#999" stroke-width="2" fill="none"/><path d="M917.83 586.77h-2v-1.02h2zM917.83 552.47h-2v-1.03h2z" fill="#999"/><path d="M777.83 630.44h100v20l-10 10h-90z" fill="#fff"/><path d="M877.83 630.44v20l-10 10h-90" stroke="#000" stroke-width="2" fill="none"/><path d="M777.83 630.44h700v180h-700z" stroke="#000" stroke-width="2" fill="none"/><use xlink:href="#i" transform="matrix(1,0,0,1,785.8333333333334,630.4409448859224) translate(0 18.6)"/><path d="M971.83 675.44c0-2.76 2.24-5 5-5h30c2.76 0 5 2.24 5 5v110c0 2.76-2.24 5-5 5h-30c-2.76 0-5-2.24-5-5z" stroke="#000" stroke-width="2" fill-opacity="0"/><path d="M825.43 690.1h-32.6v-2h32.6zm126.9 0h-15.1v-2h15.1zM967.6 689.1l-14.27 4.64v-9.27z"/><path d="M970.83 689.1l-18.5 6.02V683.1zm-16.5 3.27l10.03-3.26-10.03-3.25zM792.86 690.1h-1.03v-2h1.03z"/><use xlink:href="#j" transform="matrix(1,0,0,1,825.4333333333334,678.3076115525892) translate(0 14.4)"/><path d="M1187.07 389.57h160v60h-160z" stroke="#000" stroke-width="2" fill="#fff"/><path d="M1167.07 394.57h40v20h-40zM1167.07 424.57h40v20h-40z" stroke="#000" stroke-width="2" fill="#fff"/><use xlink:href="#k" transform="matrix(1,0,0,1,1203.0695538058258,395.56955380304134) translate(9.100000000000001 16.799999999999997)"/><use xlink:href="#e" transform="matrix(1,0,0,1,1203.0695538058258,395.56955380304134) translate(111.9 16.799999999999997)"/><use xlink:href="#l" transform="matrix(1,0,0,1,1203.0695538058258,395.56955380304134) translate(49.025 38.4)"/><path d="M1086.66 702.95h-53.83v-2h53.83zm132.23 0h-36.34v-2h36.33z" fill="#999"/><path d="M1032.86 702.95h-1.03v-2h1.03zM1234.16 701.95l-14.27 4.64v-9.28z" fill="#999"/><path d="M1237.4 701.95l-18.5 6.02v-12.03zm-16.5 3.26l10.02-3.25-10.03-3.26z" fill="#999"/><use xlink:href="#m" transform="matrix(1,0,0,1,1086.663693524099,691.1534820268996) translate(0.005000000000002558 14.4)"/><path d="M1235.07 741.42h-2.05v-2h2.05zm-10.26 0h-4.1v-2h4.1zm-12.3 0h-4.1v-2h4.1zm-12.32 0h-4.1v-2h4.1zm-12.32 0h-4.1v-2h4.1zm-12.32 0h-4.1v-2h4.1zm-12.3 0h-4.12v-2h4.1zm-12.33 0h-4.1v-2h4.1zm-12.3 0h-4.1v-2h4.1zm-12.32 0h-4.1v-2h4.1zm-12.3 0h-4.12v-2h4.1zm-12.33 0h-4.1v-2h4.1zm-12.32 0h-4.1v-2h4.1zm-12.3 0h-4.12v-2h4.12zm-12.33 0h-4.1v-2h4.1zm-12.3 0h-2.06v-2h2.05z" fill="#999"/><path d="M1236.07 741.42h-1.03v-2h1.03zM1049.34 745.05l-14.27-4.63 14.27-4.64z" fill="#999"/><path d="M1050.34 746.43l-18.5-6 18.5-6.02zm-12.03-6l10.04 3.25v-6.52z" fill="#999"/><path d="M1237.07 705.68c0-2.76 2.24-5 5-5h30c2.76 0 5 2.24 5 5v40.4c0 2.75-2.24 5-5 5h-30c-2.76 0-5-2.25-5-5z" stroke="#666" stroke-width="2" fill-opacity="0"/><path d="M1257.07 451.57v247.11" stroke="#999" stroke-width="2" fill="none"/><path d="M1258.07 451.6h-2v-1.03h2zM1258.07 699.68h-2v-1.03h2z" fill="#999"/><path d="M969.83 770.44h-2.04m-8.2 0h-4.08m-8.18 0h-4.1m-8.17 0h-4.1m-8.17 0h-4.1m-8.17 0h-4.1m-8.17 0h-4.1m-8.17 0h-4.1m-8.17 0h-4.1m-8.17 0h-4.1m-8.17 0h-4.1m-8.18 0h-4.1m-8.17 0h-4.1m-8.17 0h-2.04" stroke="#999" stroke-width="2" fill="none"/><path d="M970.83 771.44h-1.02v-2h1.03z" fill="#999"/><path d="M795.07 770.44l14.27-4.63v9.28z" stroke="#999" stroke-width="2" fill="#999"/><defs><path d="M143 0L79-87 56-68V0H24v-261h32v163l83-92h37l-77 82L181 0h-38" id="n"/><path d="M101-251c82-7 93 87 43 132L82-64C71-53 59-42 53-27h129V0H18c2-99 128-94 128-182 0-28-16-43-45-43s-46 15-49 41l-32-3c6-41 34-60 81-64" id="o"/><path d="M16-82v-28h88v28H16" id="p"/><path d="M114-163C36-179 61-72 57 0H25l-1-190h30c1 12-1 29 2 39 6-27 23-49 58-41v29" id="q"/><path d="M100-194c63 0 86 42 84 106H49c0 40 14 67 53 68 26 1 43-12 49-29l28 8c-11 28-37 45-77 45C44 4 14-33 15-96c1-61 26-98 85-98zm52 81c6-60-76-77-97-28-3 7-6 17-6 28h103" id="r"/><path d="M177-190C167-65 218 103 67 71c-23-6-38-20-44-43l32-5c15 47 100 32 89-28v-30C133-14 115 1 83 1 29 1 15-40 15-95c0-56 16-97 71-98 29-1 48 16 59 35 1-10 0-23 2-32h30zM94-22c36 0 50-32 50-73 0-42-14-75-50-75-39 0-46 34-46 75s6 73 46 73" id="s"/><path d="M24-231v-30h32v30H24zM24 0v-190h32V0H24" id="t"/><path d="M135-143c-3-34-86-38-87 0 15 53 115 12 119 90S17 21 10-45l28-5c4 36 97 45 98 0-10-56-113-15-118-90-4-57 82-63 122-42 12 7 21 19 24 35" id="u"/><path d="M59-47c-2 24 18 29 38 22v24C64 9 27 4 27-40v-127H5v-23h24l9-43h21v43h35v23H59v120" id="v"/><path d="M179-190L93 31C79 59 56 82 12 73V49c39 6 53-20 64-50L1-190h34L92-34l54-156h33" id="w"/><g id="a"><use transform="matrix(0.05,0,0,0.05,0,0)" xlink:href="#n"/><use transform="matrix(0.05,0,0,0.05,9,0)" xlink:href="#o"/><use transform="matrix(0.05,0,0,0.05,19,0)" xlink:href="#p"/><use transform="matrix(0.05,0,0,0.05,24.95,0)" xlink:href="#q"/><use transform="matrix(0.05,0,0,0.05,30.899999999999995,0)" xlink:href="#r"/><use transform="matrix(0.05,0,0,0.05,40.9,0)" xlink:href="#s"/><use transform="matrix(0.05,0,0,0.05,50.9,0)" xlink:href="#t"/><use transform="matrix(0.05,0,0,0.05,54.85,0)" xlink:href="#u"/><use transform="matrix(0.05,0,0,0.05,63.85,0)" xlink:href="#v"/><use transform="matrix(0.05,0,0,0.05,68.85,0)" xlink:href="#q"/><use transform="matrix(0.05,0,0,0.05,74.8,0)" xlink:href="#w"/></g><path d="M141-36C126-15 110 5 73 4 37 3 15-17 15-53c-1-64 63-63 125-63 3-35-9-54-41-54-24 1-41 7-42 31l-33-3c5-37 33-52 76-52 45 0 72 20 72 64v82c-1 20 7 32 28 27v20c-31 9-61-2-59-35zM48-53c0 20 12 33 32 33 41-3 63-29 60-74-43 2-92-5-92 41" id="x"/><path d="M100-194c62-1 85 37 85 99 1 63-27 99-86 99S16-35 15-95c0-66 28-99 85-99zM99-20c44 1 53-31 53-75 0-43-8-75-51-75s-53 32-53 75 10 74 51 75" id="y"/><path d="M117-194c89-4 53 116 60 194h-32v-121c0-31-8-49-39-48C34-167 62-67 57 0H25l-1-190h30c1 10-1 24 2 32 11-22 29-35 61-36" id="z"/><path d="M87 75C49 33 22-17 22-94c0-76 28-126 65-167h31c-38 41-64 92-64 168S80 34 118 75H87" id="A"/><path d="M33-261c38 41 65 92 65 168S71 34 33 75H2C39 34 66-17 66-93S39-220 2-261h31" id="B"/><g id="b"><use transform="matrix(0.05,0,0,0.05,0,0)" xlink:href="#q"/><use transform="matrix(0.05,0,0,0.05,5.95,0)" xlink:href="#r"/><use transform="matrix(0.05,0,0,0.05,15.949999999999998,0)" xlink:href="#s"/><use transform="matrix(0.05,0,0,0.05,25.950000000000003,0)" xlink:href="#t"/><use transform="matrix(0.05,0,0,0.05,29.899999999999995,0)" xlink:href="#u"/><use transform="matrix(0.05,0,0,0.05,38.9,0)" xlink:href="#v"/><use transform="matrix(0.05,0,0,0.05,43.9,0)" xlink:href="#q"/><use transform="matrix(0.05,0,0,0.05,49.85,0)" xlink:href="#x"/><use transform="matrix(0.05,0,0,0.05,59.85,0)" xlink:href="#v"/><use transform="matrix(0.05,0,0,0.05,64.85,0)" xlink:href="#t"/><use transform="matrix(0.05,0,0,0.05,68.8,0)" xlink:href="#y"/><use transform="matrix(0.05,0,0,0.05,78.8,0)" xlink:href="#z"/><use transform="matrix(0.05,0,0,0.05,88.8,0)" xlink:href="#A"/><use transform="matrix(0.05,0,0,0.05,94.75,0)" xlink:href="#B"/></g><path d="M85-194c31 0 48 13 60 33l-1-100h32l1 261h-30c-2-10 0-23-3-31C134-8 116 4 85 4 32 4 16-35 15-94c0-66 23-100 70-100zm9 24c-40 0-46 34-46 75 0 40 6 74 45 74 42 0 51-32 51-76 0-42-9-74-50-73" id="C"/><path d="M96-169c-40 0-48 33-48 73s9 75 48 75c24 0 41-14 43-38l32 2c-6 37-31 61-74 61-59 0-76-41-82-99-10-93 101-131 147-64 4 7 5 14 7 22l-32 3c-4-21-16-35-41-35" id="D"/><g id="c"><use transform="matrix(0.05,0,0,0.05,0,0)" xlink:href="#C"/><use transform="matrix(0.05,0,0,0.05,10,0)" xlink:href="#r"/><use transform="matrix(0.05,0,0,0.05,20,0)" xlink:href="#D"/><use transform="matrix(0.05,0,0,0.05,29,0)" xlink:href="#y"/><use transform="matrix(0.05,0,0,0.05,39,0)" xlink:href="#q"/><use transform="matrix(0.05,0,0,0.05,44.95,0)" xlink:href="#x"/><use transform="matrix(0.05,0,0,0.05,54.95,0)" xlink:href="#v"/><use transform="matrix(0.05,0,0,0.05,59.95,0)" xlink:href="#y"/><use transform="matrix(0.05,0,0,0.05,69.95,0)" xlink:href="#q"/></g><g id="d"><use transform="matrix(0.05,0,0,0.05,0,0)" xlink:href="#C"/><use transform="matrix(0.05,0,0,0.05,10,0)" xlink:href="#r"/><use transform="matrix(0.05,0,0,0.05,20,0)" xlink:href="#D"/><use transform="matrix(0.05,0,0,0.05,29,0)" xlink:href="#y"/><use transform="matrix(0.05,0,0,0.05,39,0)" xlink:href="#q"/><use transform="matrix(0.05,0,0,0.05,44.95,0)" xlink:href="#x"/><use transform="matrix(0.05,0,0,0.05,54.95,0)" xlink:href="#v"/><use transform="matrix(0.05,0,0,0.05,59.95,0)" xlink:href="#y"/><use transform="matrix(0.05,0,0,0.05,69.95,0)" xlink:href="#q"/></g><path d="M33-154v-36h34v36H33zM33 0v-36h34V0H33" id="E"/><use transform="matrix(0.05,0,0,0.05,0,0)" xlink:href="#E" id="e"/><path d="M63-220v92h138v28H63V0H30v-248h175v28H63" id="F"/><path d="M84 4C-5 8 30-112 23-190h32v120c0 31 7 50 39 49 72-2 45-101 50-169h31l1 190h-30c-1-10 1-25-2-33-11 22-28 36-60 37" id="G"/><g id="f"><use transform="matrix(0.05,0,0,0.05,0,0)" xlink:href="#F"/><use transform="matrix(0.05,0,0,0.05,10.950000000000001,0)" xlink:href="#G"/><use transform="matrix(0.05,0,0,0.05,20.950000000000003,0)" xlink:href="#z"/><use transform="matrix(0.05,0,0,0.05,30.950000000000003,0)" xlink:href="#D"/><use transform="matrix(0.05,0,0,0.05,39.95,0)" xlink:href="#v"/><use transform="matrix(0.05,0,0,0.05,44.95,0)" xlink:href="#t"/><use transform="matrix(0.05,0,0,0.05,48.900000000000006,0)" xlink:href="#y"/><use transform="matrix(0.05,0,0,0.05,58.900000000000006,0)" xlink:href="#z"/></g><path d="M101-234c-31-9-42 10-38 44h38v23H63V0H32v-167H5v-23h27c-7-52 17-82 69-68v24" id="H"/><g id="g"><use transform="matrix(0.05,0,0,0.05,0,0)" xlink:href="#C"/><use transform="matrix(0.05,0,0,0.05,10,0)" xlink:href="#r"/><use transform="matrix(0.05,0,0,0.05,20,0)" xlink:href="#H"/></g><g id="h"><use transform="matrix(0.05,0,0,0.05,0,0)" xlink:href="#C"/><use transform="matrix(0.05,0,0,0.05,10,0)" xlink:href="#r"/><use transform="matrix(0.05,0,0,0.05,20,0)" xlink:href="#D"/><use transform="matrix(0.05,0,0,0.05,29,0)" xlink:href="#y"/><use transform="matrix(0.05,0,0,0.05,39,0)" xlink:href="#q"/><use transform="matrix(0.05,0,0,0.05,44.95,0)" xlink:href="#x"/><use transform="matrix(0.05,0,0,0.05,54.95,0)" xlink:href="#v"/><use transform="matrix(0.05,0,0,0.05,59.95,0)" xlink:href="#y"/><use transform="matrix(0.05,0,0,0.05,69.95,0)" xlink:href="#q"/><use transform="matrix(0.05,0,0,0.05,75.9,0)" xlink:href="#A"/><use transform="matrix(0.05,0,0,0.05,81.85000000000001,0)" xlink:href="#H"/><use transform="matrix(0.05,0,0,0.05,86.85000000000001,0)" xlink:href="#G"/><use transform="matrix(0.05,0,0,0.05,96.85000000000001,0)" xlink:href="#z"/><use transform="matrix(0.05,0,0,0.05,106.85000000000001,0)" xlink:href="#D"/><use transform="matrix(0.05,0,0,0.05,115.85000000000001,0)" xlink:href="#B"/></g><g id="i"><use transform="matrix(0.05,0,0,0.05,0,0)" xlink:href="#C"/><use transform="matrix(0.05,0,0,0.05,10,0)" xlink:href="#r"/><use transform="matrix(0.05,0,0,0.05,20,0)" xlink:href="#H"/></g><g id="j"><use transform="matrix(0.05,0,0,0.05,0,0)" xlink:href="#C"/><use transform="matrix(0.05,0,0,0.05,10,0)" xlink:href="#r"/><use transform="matrix(0.05,0,0,0.05,20,0)" xlink:href="#D"/><use transform="matrix(0.05,0,0,0.05,29,0)" xlink:href="#y"/><use transform="matrix(0.05,0,0,0.05,39,0)" xlink:href="#q"/><use transform="matrix(0.05,0,0,0.05,44.95,0)" xlink:href="#v"/><use transform="matrix(0.05,0,0,0.05,49.95,0)" xlink:href="#y"/><use transform="matrix(0.05,0,0,0.05,59.95,0)" xlink:href="#q"/><use transform="matrix(0.05,0,0,0.05,65.9,0)" xlink:href="#A"/><use transform="matrix(0.05,0,0,0.05,71.85000000000001,0)" xlink:href="#H"/><use transform="matrix(0.05,0,0,0.05,76.85000000000001,0)" xlink:href="#G"/><use transform="matrix(0.05,0,0,0.05,86.85000000000001,0)" xlink:href="#z"/><use transform="matrix(0.05,0,0,0.05,96.85000000000001,0)" xlink:href="#D"/><use transform="matrix(0.05,0,0,0.05,105.85000000000001,0)" xlink:href="#B"/></g><g id="k"><use transform="matrix(0.05,0,0,0.05,0,0)" xlink:href="#q"/><use transform="matrix(0.05,0,0,0.05,5.95,0)" xlink:href="#r"/><use transform="matrix(0.05,0,0,0.05,15.949999999999998,0)" xlink:href="#s"/><use transform="matrix(0.05,0,0,0.05,25.950000000000003,0)" xlink:href="#t"/><use transform="matrix(0.05,0,0,0.05,29.899999999999995,0)" xlink:href="#u"/><use transform="matrix(0.05,0,0,0.05,38.9,0)" xlink:href="#v"/><use transform="matrix(0.05,0,0,0.05,43.9,0)" xlink:href="#q"/><use transform="matrix(0.05,0,0,0.05,49.85,0)" xlink:href="#x"/><use transform="matrix(0.05,0,0,0.05,59.85,0)" xlink:href="#v"/><use transform="matrix(0.05,0,0,0.05,64.85,0)" xlink:href="#t"/><use transform="matrix(0.05,0,0,0.05,68.8,0)" xlink:href="#y"/><use transform="matrix(0.05,0,0,0.05,78.8,0)" xlink:href="#z"/><use transform="matrix(0.05,0,0,0.05,88.8,0)" xlink:href="#u"/></g><path d="M30 0v-248h33v221h125V0H30" id="I"/><g id="l"><use transform="matrix(0.05,0,0,0.05,0,0)" xlink:href="#I"/><use transform="matrix(0.05,0,0,0.05,10,0)" xlink:href="#t"/><use transform="matrix(0.05,0,0,0.05,13.949999999999998,0)" xlink:href="#u"/><use transform="matrix(0.05,0,0,0.05,22.95,0)" xlink:href="#v"/></g><path d="M115-194c55 1 70 41 70 98S169 2 115 4C84 4 66-9 55-30l1 105H24l-1-265h31l2 30c10-21 28-34 59-34zm-8 174c40 0 45-34 45-75s-6-73-45-74c-42 0-51 32-51 76 0 43 10 73 51 73" id="J"/><g id="m"><use transform="matrix(0.05,0,0,0.05,0,0)" xlink:href="#x"/><use transform="matrix(0.05,0,0,0.05,10,0)" xlink:href="#J"/><use transform="matrix(0.05,0,0,0.05,20,0)" xlink:href="#r"/><use transform="matrix(0.05,0,0,0.05,30,0)" xlink:href="#z"/><use transform="matrix(0.05,0,0,0.05,40,0)" xlink:href="#C"/><use transform="matrix(0.05,0,0,0.05,50,0)" xlink:href="#A"/><use transform="matrix(0.05,0,0,0.05,55.95,0)" xlink:href="#H"/><use transform="matrix(0.05,0,0,0.05,60.95,0)" xlink:href="#G"/><use transform="matrix(0.05,0,0,0.05,70.95,0)" xlink:href="#z"/><use transform="matrix(0.05,0,0,0.05,80.95,0)" xlink:href="#D"/><use transform="matrix(0.05,0,0,0.05,89.95,0)" xlink:href="#B"/></g></defs></g></svg>