<svg xmlns="http://www.w3.org/2000/svg" xmlns:xlink="http://www.w3.org/1999/xlink" xmlns:lucid="lucid" width="1172" height="281"><g transform="translate(-353.33333333333337 -457.5)" lucid:page-tab-id="0_0"><path d="M385.33 609H586.4M385.36 609h-1.03" stroke="#000" stroke-width="2" fill="none"/><path d="M601.66 609l-14.27 4.65v-9.27z" stroke="#000" stroke-width="2"/><use xlink:href="#a" transform="matrix(1,0,0,1,463.738693524099,583.4125371409774) translate(0.004999999999999005 14.4)"/><path d="M602.57 707.5h-1.96m-7.82 0h-3.92m-7.83 0h-3.92m-7.82 0h-3.92m-7.83 0h-3.9m-7.85 0h-3.9m-7.85 0h-3.9m-7.85 0h-3.9m-7.84 0h-3.92m-7.83 0h-3.93m-7.83 0h-3.92m-7.83 0h-3.93m-7.83 0h-3.92m-7.83 0h-3.93m-7.83 0h-3.92m-7.83 0h-3.92m-7.84 0h-3.9m-7.85 0h-1.96" stroke="#000" stroke-width="2" fill="none"/><path d="M603.57 708.5h-1.03v-2h1.03z"/><path d="M387.57 707.5l14.27-4.64v9.28z" stroke="#000" stroke-width="2"/><use xlink:href="#b" transform="matrix(1,0,0,1,470.5014435695795,681.9) translate(0.004999999999999005 14.4)"/><path d="M604.57 612.74c0-2.77 2.24-5 5-5h30c2.76 0 5 2.23 5 5v99.76c0 2.76-2.24 5-5 5h-30c-2.76 0-5-2.24-5-5z" stroke="#000" stroke-width="2" fill-opacity="0"/><path d="M624.57 578.5v27.24M624.57 578.53v-1.03M624.57 605.7v1.04M624.57 539.5V558h-.24v18.5" stroke="#000" stroke-width="2" fill="none"/><path d="M625.57 539.53h-2v-1.03h2z"/><path d="M624.33 576.47v1.03" stroke="#000" stroke-width="2" fill="none"/><path d="M824.33 477.5h160v60h-160z" stroke="#000" stroke-width="2" fill="#fff"/><path d="M804.33 482.5h40v20h-40zM804.33 512.5h40v20h-40z" stroke="#000" stroke-width="2" fill="#fff"/><use xlink:href="#c" transform="matrix(1,0,0,1,840.3333333333334,483.5) translate(9.100000000000001 16.799999999999997)"/><use xlink:href="#d" transform="matrix(1,0,0,1,840.3333333333334,483.5) translate(111.9 16.799999999999997)"/><use xlink:href="#e" transform="matrix(1,0,0,1,840.3333333333334,483.5) translate(49.025 38.4)"/><path d="M881.33 599.83c0-2.76 2.24-5 5-5h30c2.76 0 5 2.24 5 5v30.87c0 2.77-2.24 5-5 5h-30c-2.76 0-5-2.23-5-5z" stroke="#666" stroke-width="2" fill-opacity="0"/><path d="M878.52 616.27h-4.1v-2h4.1zm-12.3 0h-8.2v-2h8.2zm-16.4 0h-8.2v-2h8.2zm-16.4 0h-8.2v-2h8.2zm-16.4 0h-8.2v-2h8.2zm-16.4 0h-8.2v-2h8.2zm-33.3 0h-7.7v-2h7.7zm-15.9 0h-8.2v-2h8.2zm-16.4 0h-8.2v-2h8.2zm-16.4 0h-8.2v-2h8.2zm-16.4 0h-8.2v-2h8.2zm-16.4 0h-8.2v-2h8.2zm-16.4 0h-4.1v-2h4.1zm114.8 0h-6.9v-2h6.9z" fill="#999"/><path d="M880.33 615.27l-18.67 11.04-1.02-1.7 15.76-9.33-15.76-9.32 1.02-1.72zM665.36 616.27h-1.03v-2h1.03z" fill="#999"/><use xlink:href="#f" transform="matrix(1,0,0,1,767.3333333332752,604.4690288746963) translate(0.004999999999999893 14.4)"/><path d="M901.33 592.83v-9.05m0-9.06V556.6m0-9.04v-9.06" stroke="#999" stroke-width="2" fill="none"/><path d="M902.33 593.83h-2v-1.02h2z" fill="#999"/><path d="M901.33 538.53v-1.03" stroke="#999" stroke-width="2" fill="none"/><path d="M1065.33 477.5h199v60h-199z" stroke="#000" stroke-width="2" fill="#fff"/><path d="M1045.33 482.5h40v20h-40zM1045.33 512.5h40v20h-40z" stroke="#000" stroke-width="2" fill="#fff"/><use xlink:href="#g" transform="matrix(1,0,0,1,1089.1333333333334,483.5) translate(39.074999999999996 16.799999999999997)"/><use xlink:href="#d" transform="matrix(1,0,0,1,1089.1333333333334,483.5) translate(109.92500000000001 16.799999999999997)"/><use xlink:href="#h" transform="matrix(1,0,0,1,1089.1333333333334,483.5) translate(11.125 38.4)"/><path d="M1149.33 641.63c0-2.76 2.24-5 5-5h30c2.76 0 5 2.24 5 5v30.87c0 2.76-2.24 5-5 5h-30c-2.76 0-5-2.24-5-5z" stroke="#666" stroke-width="2" fill-opacity="0"/><path d="M1146.52 658.06h-4v-2h4zm-12.03 0h-8.03v-2h8.02zm-16.05 0h-8.02v-2h8.02zm-16.04 0h-8v-2h8zm-16.03 0h-8.02v-2h8.02zm-16.04 0h-8.02v-2h8.03zm-16.04 0h-8.03v-2h8.02zm-16.05 0h-8.02v-2h8.02zm-16.04 0h-8v-2h8zm-16.03 0h-8.02v-2h8.02zm-16.04 0h-8.02v-2h8.03zm-145.65 0h-6.72v-2h6.72zm-14.74 0h-8.02v-2h8.02zm-16.04 0h-8.02v-2h8.02zm-16.04 0h-8.02v-2h8.02zm-16.04 0h-8.02v-2h8.02zm-16.04 0h-8.02v-2h8.02zm-16.04 0h-8.02v-2h8.02zm-16.04 0h-8.02v-2h8.02zm-16.04 0h-8.02v-2h8.02zm-16.04 0h-8.02v-2h8.02zm-16.04 0h-8.02v-2h8.02zm-16.04 0h-4v-2h4zm304.75 0h-5.92v-2h5.9z" fill="#999"/><path d="M1148.33 657.06l-18.67 11.05-1.02-1.72 15.76-9.32-15.76-9.32 1.02-1.72zM665.36 658.06h-1.03v-2h1.03z" fill="#999"/><use xlink:href="#i" transform="matrix(1,0,0,1,844.4833333332753,646.2643044585595) translate(0.005000000000002558 14.4)"/><use xlink:href="#j" transform="matrix(1,0,0,1,844.4833333332753,646.2643044585595) translate(45.955000000000005 14.4)"/><path d="M1169.33 634.63v-10.68m0-10.68V591.9m0-10.68v-21.36m0-10.68V538.5" stroke="#999" stroke-width="2" fill="none"/><path d="M1170.33 635.63h-2v-1.03h2z" fill="#999"/><path d="M1169.33 538.53v-1.03" stroke="#999" stroke-width="2" fill="none"/><path d="M1345.33 477.5h160v60h-160z" stroke="#000" stroke-width="2" fill="#fff"/><path d="M1325.33 482.5h40v20h-40zM1325.33 512.5h40v20h-40z" stroke="#000" stroke-width="2" fill="#fff"/><use xlink:href="#k" transform="matrix(1,0,0,1,1361.3333333333335,483.5) translate(28.575000000000003 17.299999999999997)"/><use xlink:href="#d" transform="matrix(1,0,0,1,1361.3333333333335,483.5) translate(92.42500000000001 17.299999999999997)"/><use xlink:href="#l" transform="matrix(1,0,0,1,1361.3333333333335,483.5) translate(30.074999999999996 38.9)"/><path d="M1418.33 679.83c0-2.76 2.24-5 5-5h30c2.76 0 5 2.24 5 5v30.87c0 2.77-2.24 5-5 5h-30c-2.76 0-5-2.23-5-5z" stroke="#666" stroke-width="2" fill-opacity="0"/><path d="M1415.52 696.27h-4v-2h4zm-11.98 0h-7.98v-2h7.98zm-15.96 0h-7.98v-2h7.98zm-15.96 0h-7.98v-2h7.98zm-15.96 0h-7.98v-2h7.98zm-15.96 0h-7.98v-2h7.98zm-15.96 0h-7.98v-2h7.98zm-15.96 0h-7.98v-2h7.98zm-15.97 0h-7.97v-2h7.98zm-15.95 0h-7.98v-2h7.98zm-15.96 0h-8v-2h8zm-15.97 0h-7.98v-2h7.98zm-15.96 0H1220v-2h7.97zm-15.96 0h-7.97v-2h7.98zm-15.95 0h-7.98v-2h7.98zm-15.96 0h-8v-2h8zm-15.98 0h-7.98v-2h7.98zm-15.96 0h-7.98v-2h7.98zm-15.96 0h-7.98v-2h7.98zm-15.96 0h-7.98v-2h7.98zm-15.96 0h-7.98v-2h7.98zm-98.32 0h-5.43v-2h5.43zm-13.4 0h-8v-2h8zm-15.97 0h-8v-2h8zm-15.97 0h-7.98v-2h7.98zm-15.96 0h-7.98v-2h7.97zm-15.97 0h-7.98v-2h7.98zm-15.96 0h-7.98v-2h7.98zm-15.96 0h-7.98v-2h7.98zm-15.96 0h-7.98v-2h7.98zm-15.96 0h-7.98v-2h7.98zm-15.96 0h-7.98v-2h7.98zm-15.96 0h-7.98v-2h7.98zm-15.96 0h-8v-2h8zm-15.97 0h-7.97v-2H797zm-15.95 0h-7.98v-2h7.98zm-15.96 0h-8v-2h8zm-15.97 0h-7.98v-2h7.98zm-15.96 0h-7.98v-2h7.97zm-15.96 0h-7.97v-2h7.98zm-15.95 0h-7.98v-2h7.98zm-15.97 0h-7.98v-2h7.98zm-15.96 0h-4v-2h4zm415 0h-4.6v-2h4.6z" fill="#999"/><path d="M1417.33 695.27l-18.67 11.04-1.02-1.7 15.76-9.33-15.76-9.32 1.02-1.72zM665.36 696.27h-1.03v-2h1.03z" fill="#999"/><use xlink:href="#m" transform="matrix(1,0,0,1,1001.9583333332753,684.4690288746963) translate(0.005000000000002558 14.4)"/><path d="M1438.33 672.83v-11.2m0-11.2v-22.37m0-11.2v-22.4m0-11.18v-22.4m0-11.2V538.5" stroke="#999" stroke-width="2" fill="none"/><path d="M1439.33 673.83h-2v-1.02h2z" fill="#999"/><path d="M1438.33 538.53v-1.03" stroke="#999" stroke-width="2" fill="none"/><path d="M564.57 477.5h140v60h-140z" stroke="#000" stroke-width="2" fill="#fff"/><path d="M544.57 482.5h40v20h-40zM544.57 512.5h40v20h-40z" stroke="#000" stroke-width="2" fill="#fff"/><g><use xlink:href="#n" transform="matrix(1,0,0,1,576.5695538058256,483.5) translate(14.100000000000001 27.6)"/></g><defs><path d="M24-231v-30h32v30H24zM24 0v-190h32V0H24" id="o"/><path d="M210-169c-67 3-38 105-44 169h-31v-121c0-29-5-50-35-48C34-165 62-65 56 0H25l-1-190h30c1 10-1 24 2 32 10-44 99-50 107 0 11-21 27-35 58-36 85-2 47 119 55 194h-31v-121c0-29-5-49-35-48" id="p"/><path d="M115-194c55 1 70 41 70 98S169 2 115 4C84 4 66-9 55-30l1 105H24l-1-265h31l2 30c10-21 28-34 59-34zm-8 174c40 0 45-34 45-75s-6-73-45-74c-42 0-51 32-51 76 0 43 10 73 51 73" id="q"/><path d="M100-194c62-1 85 37 85 99 1 63-27 99-86 99S16-35 15-95c0-66 28-99 85-99zM99-20c44 1 53-31 53-75 0-43-8-75-51-75s-53 32-53 75 10 74 51 75" id="r"/><path d="M114-163C36-179 61-72 57 0H25l-1-190h30c1 12-1 29 2 39 6-27 23-49 58-41v29" id="s"/><path d="M59-47c-2 24 18 29 38 22v24C64 9 27 4 27-40v-127H5v-23h24l9-43h21v43h35v23H59v120" id="t"/><path d="M87 75C49 33 22-17 22-94c0-76 28-126 65-167h31c-38 41-64 92-64 168S80 34 118 75H87" id="u"/><path d="M33-261c38 41 65 92 65 168S71 34 33 75H2C39 34 66-17 66-93S39-220 2-261h31" id="v"/><g id="a"><use transform="matrix(0.05,0,0,0.05,0,0)" xlink:href="#o"/><use transform="matrix(0.05,0,0,0.05,3.95,0)" xlink:href="#p"/><use transform="matrix(0.05,0,0,0.05,18.900000000000002,0)" xlink:href="#q"/><use transform="matrix(0.05,0,0,0.05,28.900000000000002,0)" xlink:href="#r"/><use transform="matrix(0.05,0,0,0.05,38.900000000000006,0)" xlink:href="#s"/><use transform="matrix(0.05,0,0,0.05,44.85000000000001,0)" xlink:href="#t"/><use transform="matrix(0.05,0,0,0.05,49.85000000000001,0)" xlink:href="#u"/><use transform="matrix(0.05,0,0,0.05,55.80000000000001,0)" xlink:href="#v"/></g><path d="M100-194c63 0 86 42 84 106H49c0 40 14 67 53 68 26 1 43-12 49-29l28 8c-11 28-37 45-77 45C44 4 14-33 15-96c1-61 26-98 85-98zm52 81c6-60-76-77-97-28-3 7-6 17-6 28h103" id="w"/><path d="M84 4C-5 8 30-112 23-190h32v120c0 31 7 50 39 49 72-2 45-101 50-169h31l1 190h-30c-1-10 1-25-2-33-11 22-28 36-60 37" id="x"/><path d="M117-194c89-4 53 116 60 194h-32v-121c0-31-8-49-39-48C34-167 62-67 57 0H25l-1-190h30c1 10-1 24 2 32 11-22 29-35 61-36" id="y"/><g id="b"><use transform="matrix(0.05,0,0,0.05,0,0)" xlink:href="#s"/><use transform="matrix(0.05,0,0,0.05,5.95,0)" xlink:href="#w"/><use transform="matrix(0.05,0,0,0.05,15.949999999999998,0)" xlink:href="#t"/><use transform="matrix(0.05,0,0,0.05,20.95,0)" xlink:href="#x"/><use transform="matrix(0.05,0,0,0.05,30.950000000000003,0)" xlink:href="#s"/><use transform="matrix(0.05,0,0,0.05,36.9,0)" xlink:href="#y"/></g><path d="M177-190C167-65 218 103 67 71c-23-6-38-20-44-43l32-5c15 47 100 32 89-28v-30C133-14 115 1 83 1 29 1 15-40 15-95c0-56 16-97 71-98 29-1 48 16 59 35 1-10 0-23 2-32h30zM94-22c36 0 50-32 50-73 0-42-14-75-50-75-39 0-46 34-46 75s6 73 46 73" id="z"/><path d="M135-143c-3-34-86-38-87 0 15 53 115 12 119 90S17 21 10-45l28-5c4 36 97 45 98 0-10-56-113-15-118-90-4-57 82-63 122-42 12 7 21 19 24 35" id="A"/><path d="M141-36C126-15 110 5 73 4 37 3 15-17 15-53c-1-64 63-63 125-63 3-35-9-54-41-54-24 1-41 7-42 31l-33-3c5-37 33-52 76-52 45 0 72 20 72 64v82c-1 20 7 32 28 27v20c-31 9-61-2-59-35zM48-53c0 20 12 33 32 33 41-3 63-29 60-74-43 2-92-5-92 41" id="B"/><g id="c"><use transform="matrix(0.05,0,0,0.05,0,0)" xlink:href="#s"/><use transform="matrix(0.05,0,0,0.05,5.95,0)" xlink:href="#w"/><use transform="matrix(0.05,0,0,0.05,15.949999999999998,0)" xlink:href="#z"/><use transform="matrix(0.05,0,0,0.05,25.950000000000003,0)" xlink:href="#o"/><use transform="matrix(0.05,0,0,0.05,29.899999999999995,0)" xlink:href="#A"/><use transform="matrix(0.05,0,0,0.05,38.9,0)" xlink:href="#t"/><use transform="matrix(0.05,0,0,0.05,43.9,0)" xlink:href="#s"/><use transform="matrix(0.05,0,0,0.05,49.85,0)" xlink:href="#B"/><use transform="matrix(0.05,0,0,0.05,59.85,0)" xlink:href="#t"/><use transform="matrix(0.05,0,0,0.05,64.85,0)" xlink:href="#o"/><use transform="matrix(0.05,0,0,0.05,68.8,0)" xlink:href="#r"/><use transform="matrix(0.05,0,0,0.05,78.8,0)" xlink:href="#y"/><use transform="matrix(0.05,0,0,0.05,88.8,0)" xlink:href="#A"/></g><path d="M33-154v-36h34v36H33zM33 0v-36h34V0H33" id="C"/><use transform="matrix(0.05,0,0,0.05,0,0)" xlink:href="#C" id="d"/><path d="M30 0v-248h33v221h125V0H30" id="D"/><g id="e"><use transform="matrix(0.05,0,0,0.05,0,0)" xlink:href="#D"/><use transform="matrix(0.05,0,0,0.05,10,0)" xlink:href="#o"/><use transform="matrix(0.05,0,0,0.05,13.949999999999998,0)" xlink:href="#A"/><use transform="matrix(0.05,0,0,0.05,22.95,0)" xlink:href="#t"/></g><path d="M26 75v-336h71v23H56V52h41v23H26" id="E"/><path d="M3 75V52h41v-290H3v-23h71V75H3" id="F"/><g id="f"><use transform="matrix(0.05,0,0,0.05,0,0)" xlink:href="#E"/><use transform="matrix(0.05,0,0,0.05,5,0)" xlink:href="#F"/></g><path d="M233-177c-1 41-23 64-60 70L243 0h-38l-65-103H63V0H30v-248c88 3 205-21 203 71zM63-129c60-2 137 13 137-47 0-61-80-42-137-45v92" id="G"/><path d="M179-190L93 31C79 59 56 82 12 73V49c39 6 53-20 64-50L1-190h34L92-34l54-156h33" id="H"/><g id="g"><use transform="matrix(0.05,0,0,0.05,0,0)" xlink:href="#G"/><use transform="matrix(0.05,0,0,0.05,12.950000000000001,0)" xlink:href="#w"/><use transform="matrix(0.05,0,0,0.05,22.950000000000003,0)" xlink:href="#z"/><use transform="matrix(0.05,0,0,0.05,32.95,0)" xlink:href="#o"/><use transform="matrix(0.05,0,0,0.05,36.900000000000006,0)" xlink:href="#A"/><use transform="matrix(0.05,0,0,0.05,45.900000000000006,0)" xlink:href="#t"/><use transform="matrix(0.05,0,0,0.05,50.900000000000006,0)" xlink:href="#s"/><use transform="matrix(0.05,0,0,0.05,56.85,0)" xlink:href="#H"/></g><path d="M212-179c-10-28-35-45-73-45-59 0-87 40-87 99 0 60 29 101 89 101 43 0 62-24 78-52l27 14C228-24 195 4 139 4 59 4 22-46 18-125c-6-104 99-153 187-111 19 9 31 26 39 46" id="I"/><path d="M24 0v-261h32V0H24" id="J"/><path d="M18-100v-36l175-74v27L42-118l151 64v27" id="K"/><path d="M18-27v-27l151-64-151-65v-27l175 74v36" id="L"/><g id="h"><use transform="matrix(0.05,0,0,0.05,0,0)" xlink:href="#I"/><use transform="matrix(0.05,0,0,0.05,12.950000000000001,0)" xlink:href="#J"/><use transform="matrix(0.05,0,0,0.05,16.900000000000002,0)" xlink:href="#B"/><use transform="matrix(0.05,0,0,0.05,26.900000000000002,0)" xlink:href="#A"/><use transform="matrix(0.05,0,0,0.05,35.900000000000006,0)" xlink:href="#A"/><use transform="matrix(0.05,0,0,0.05,44.900000000000006,0)" xlink:href="#K"/><use transform="matrix(0.05,0,0,0.05,55.400000000000006,0)" xlink:href="#G"/><use transform="matrix(0.05,0,0,0.05,68.35000000000001,0)" xlink:href="#w"/><use transform="matrix(0.05,0,0,0.05,78.35000000000001,0)" xlink:href="#z"/><use transform="matrix(0.05,0,0,0.05,88.35000000000001,0)" xlink:href="#o"/><use transform="matrix(0.05,0,0,0.05,92.30000000000001,0)" xlink:href="#A"/><use transform="matrix(0.05,0,0,0.05,101.30000000000001,0)" xlink:href="#t"/><use transform="matrix(0.05,0,0,0.05,106.30000000000001,0)" xlink:href="#s"/><use transform="matrix(0.05,0,0,0.05,112.25,0)" xlink:href="#H"/><use transform="matrix(0.05,0,0,0.05,121.25,0)" xlink:href="#L"/></g><path d="M96-169c-40 0-48 33-48 73s9 75 48 75c24 0 41-14 43-38l32 2c-6 37-31 61-74 61-59 0-76-41-82-99-10-93 101-131 147-64 4 7 5 14 7 22l-32 3c-4-21-16-35-41-35" id="M"/><g id="i"><use transform="matrix(0.05,0,0,0.05,0,0)" xlink:href="#M"/><use transform="matrix(0.05,0,0,0.05,9,0)" xlink:href="#J"/><use transform="matrix(0.05,0,0,0.05,12.949999999999998,0)" xlink:href="#B"/><use transform="matrix(0.05,0,0,0.05,22.95,0)" xlink:href="#A"/><use transform="matrix(0.05,0,0,0.05,31.950000000000003,0)" xlink:href="#A"/></g><g id="j"><use transform="matrix(0.05,0,0,0.05,0,0)" xlink:href="#G"/><use transform="matrix(0.05,0,0,0.05,12.950000000000001,0)" xlink:href="#w"/><use transform="matrix(0.05,0,0,0.05,22.950000000000003,0)" xlink:href="#z"/><use transform="matrix(0.05,0,0,0.05,32.95,0)" xlink:href="#o"/><use transform="matrix(0.05,0,0,0.05,36.900000000000006,0)" xlink:href="#A"/><use transform="matrix(0.05,0,0,0.05,45.900000000000006,0)" xlink:href="#t"/><use transform="matrix(0.05,0,0,0.05,50.900000000000006,0)" xlink:href="#s"/><use transform="matrix(0.05,0,0,0.05,56.85,0)" xlink:href="#H"/><use transform="matrix(0.05,0,0,0.05,65.85000000000001,0)" xlink:href="#u"/><use transform="matrix(0.05,0,0,0.05,71.80000000000001,0)" xlink:href="#v"/></g><g id="k"><use transform="matrix(0.05,0,0,0.05,0,0)" xlink:href="#s"/><use transform="matrix(0.05,0,0,0.05,5.95,0)" xlink:href="#w"/><use transform="matrix(0.05,0,0,0.05,15.949999999999998,0)" xlink:href="#z"/><use transform="matrix(0.05,0,0,0.05,25.950000000000003,0)" xlink:href="#o"/><use transform="matrix(0.05,0,0,0.05,29.899999999999995,0)" xlink:href="#A"/><use transform="matrix(0.05,0,0,0.05,38.9,0)" xlink:href="#t"/><use transform="matrix(0.05,0,0,0.05,43.9,0)" xlink:href="#s"/><use transform="matrix(0.05,0,0,0.05,49.85,0)" xlink:href="#H"/></g><g id="l"><use transform="matrix(0.05,0,0,0.05,0,0)" xlink:href="#G"/><use transform="matrix(0.05,0,0,0.05,12.950000000000001,0)" xlink:href="#w"/><use transform="matrix(0.05,0,0,0.05,22.950000000000003,0)" xlink:href="#z"/><use transform="matrix(0.05,0,0,0.05,32.95,0)" xlink:href="#o"/><use transform="matrix(0.05,0,0,0.05,36.900000000000006,0)" xlink:href="#A"/><use transform="matrix(0.05,0,0,0.05,45.900000000000006,0)" xlink:href="#t"/><use transform="matrix(0.05,0,0,0.05,50.900000000000006,0)" xlink:href="#s"/><use transform="matrix(0.05,0,0,0.05,56.85,0)" xlink:href="#H"/></g><g id="m"><use transform="matrix(0.05,0,0,0.05,0,0)" xlink:href="#G"/><use transform="matrix(0.05,0,0,0.05,12.950000000000001,0)" xlink:href="#w"/><use transform="matrix(0.05,0,0,0.05,22.950000000000003,0)" xlink:href="#z"/><use transform="matrix(0.05,0,0,0.05,32.95,0)" xlink:href="#o"/><use transform="matrix(0.05,0,0,0.05,36.900000000000006,0)" xlink:href="#A"/><use transform="matrix(0.05,0,0,0.05,45.900000000000006,0)" xlink:href="#t"/><use transform="matrix(0.05,0,0,0.05,50.900000000000006,0)" xlink:href="#s"/><use transform="matrix(0.05,0,0,0.05,56.85,0)" xlink:href="#H"/><use transform="matrix(0.05,0,0,0.05,65.85000000000001,0)" xlink:href="#u"/><use transform="matrix(0.05,0,0,0.05,71.80000000000001,0)" xlink:href="#v"/></g><path d="M143 0L79-87 56-68V0H24v-261h32v163l83-92h37l-77 82L181 0h-38" id="N"/><path d="M101-251c82-7 93 87 43 132L82-64C71-53 59-42 53-27h129V0H18c2-99 128-94 128-182 0-28-16-43-45-43s-46 15-49 41l-32-3c6-41 34-60 81-64" id="O"/><path d="M16-82v-28h88v28H16" id="P"/><g id="n"><use transform="matrix(0.05,0,0,0.05,0,0)" xlink:href="#N"/><use transform="matrix(0.05,0,0,0.05,9,0)" xlink:href="#O"/><use transform="matrix(0.05,0,0,0.05,19,0)" xlink:href="#P"/><use transform="matrix(0.05,0,0,0.05,24.95,0)" xlink:href="#s"/><use transform="matrix(0.05,0,0,0.05,30.899999999999995,0)" xlink:href="#w"/><use transform="matrix(0.05,0,0,0.05,40.9,0)" xlink:href="#z"/><use transform="matrix(0.05,0,0,0.05,50.9,0)" xlink:href="#o"/><use transform="matrix(0.05,0,0,0.05,54.85,0)" xlink:href="#A"/><use transform="matrix(0.05,0,0,0.05,63.85,0)" xlink:href="#t"/><use transform="matrix(0.05,0,0,0.05,68.85,0)" xlink:href="#s"/><use transform="matrix(0.05,0,0,0.05,74.8,0)" xlink:href="#H"/></g></defs></g></svg>