<svg xmlns="http://www.w3.org/2000/svg" xmlns:xlink="http://www.w3.org/1999/xlink" xmlns:lucid="lucid" width="871" height="720"><g transform="translate(-503.83333333333337 -238)" lucid:page-tab-id="0_0"><path d="M813.83 284h170v654h-460V258h276zm-290 0h290" stroke="#000" stroke-width="2" fill="#fff"/><use xlink:href="#a" transform="matrix(1,0,0,1,531.8333333333334,258) translate(0 16.6)"/><g fill="none"><path d="M1164.83 398h-10m30 20c-11.04 0-20-8.95-20-20s8.96-20 20-20" stroke="#000" stroke-width="2"/><path d="M1184.83 418c-11.04 0-20-8.95-20-20s8.96-20 20-20zM1164.83 398.8h-10v-1.6h10z"/></g><path d="M1022.23 429h-26.4v-2h26.4zm131.6-30h-29v30h-24.5v-2h22.5v-30h31z"/><path d="M995.86 429h-1.03v-2h1.03zM1154.83 399h-1.02v-2h1.03z"/><use xlink:href="#b" transform="matrix(1,0,0,1,1022.2311686775492,417.2) translate(0 14.4)"/><path d="M973.83 418h20v20h-20z" stroke="#666" stroke-width="2" fill="#fff"/><g fill="none"><path d="M1164.83 278h-10m30 20c-11.04 0-20-8.95-20-20s8.96-20 20-20" stroke="#000" stroke-width="2"/><path d="M1184.83 298c-11.04 0-20-8.95-20-20s8.96-20 20-20zM1164.83 278.8h-10v-1.6h10z"/></g><path d="M1006.3 329h-10.47v-2h10.48zm147.53-50h-18v50h-22.47v-2h20.47v-50h20z"/><path d="M995.86 329h-1.03v-2h1.03zM1154.83 279h-1.02v-2h1.03z"/><use xlink:href="#c" transform="matrix(1,0,0,1,1006.3083333333335,317.2) translate(0 14.4)"/><path d="M973.83 318h20v20h-20z" stroke="#666" stroke-width="2" fill="#fff"/><path d="M1184.83 378h150v40h-150z" stroke="#000" stroke-opacity="0" stroke-width="2" fill="#fff" fill-opacity="0"/><use xlink:href="#d" transform="matrix(1,0,0,1,1189.8333333333335,383) translate(0 18.15)"/><path d="M1184.83 258h150v40h-150z" stroke="#000" stroke-opacity="0" stroke-width="2" fill="#fff" fill-opacity="0"/><use xlink:href="#e" transform="matrix(1,0,0,1,1189.8333333333335,263) translate(0 18.15)"/><path d="M973.83 538h20v20h-20z" stroke="#666" stroke-width="2" fill="#fff"/><path d="M1154.83 578h10m40 0c0 11.05-8.95 20-20 20-11.04 0-20-8.95-20-20s8.96-20 20-20c11.05 0 20 8.95 20 20z" stroke="#000" stroke-width="2" fill="#fff"/><path d="M1154.83 577.2h10v1.6h-10z" fill="none"/><g fill="none"><path d="M1164.83 518h-10m30 20c-11.04 0-20-8.95-20-20s8.96-20 20-20" stroke="#000" stroke-width="2"/><path d="M1184.83 538c-11.04 0-20-8.95-20-20s8.96-20 20-20zM1164.83 518.8h-10v-1.6h10z"/></g><path d="M1025.77 549h-29.94v-2h29.94zm128.06-30h-18v30h-50.2v-2h48.2v-30h20z"/><path d="M1154.83 519h-1.02v-2h1.03zM995.86 549h-1.03v-2h1.03z"/><path d="M1135.83 577h18v2h-20v-30h-48.2v-2h50.2zm-140-28v-2h29.94v2z"/><path d="M1154.83 579h-1.02v-2h1.03zM995.86 549h-1.03v-2h1.03z"/><use xlink:href="#f" transform="matrix(1,0,0,1,1025.766649378511,537.2) translate(0 14.4)"/><path d="M1184.83 498h150v40h-150z" stroke="#000" stroke-opacity="0" stroke-width="2" fill="#fff" fill-opacity="0"/><use xlink:href="#g" transform="matrix(1,0,0,1,1189.8333333333335,503) translate(0 18.15)"/><use xlink:href="#h" transform="matrix(1,0,0,1,1189.8333333333335,503) translate(49.95 18.15)"/><use xlink:href="#i" transform="matrix(1,0,0,1,1189.8333333333335,503) translate(59.95 18.15)"/><path d="M1204.83 558h150v40h-150z" stroke="#000" stroke-opacity="0" stroke-width="2" fill="#fff" fill-opacity="0"/><use xlink:href="#d" transform="matrix(1,0,0,1,1209.8333333333335,563) translate(0 18.15)"/><path d="M563.83 298h160v60h-160z" stroke="#000" stroke-width="2" fill="#fff"/><path d="M543.83 303h40v20h-40zM543.83 333h40v20h-40z" stroke="#000" stroke-width="2" fill="#fff"/><use xlink:href="#j" transform="matrix(1,0,0,1,579.8333333333334,304) translate(9.100000000000001 16.799999999999997)"/><use xlink:href="#k" transform="matrix(1,0,0,1,579.8333333333334,304) translate(111.9 16.799999999999997)"/><use xlink:href="#l" transform="matrix(1,0,0,1,579.8333333333334,304) translate(49.025 38.4)"/><path d="M713.83 318h20v20h-20z" stroke="#666" stroke-width="2" fill="#fff"/><path d="M764.33 329h-28.5v-2h28.5zm78.5 0h-28.5v-2h28.5z"/><path d="M843.83 329h-1.02v-2h1.03zM735.86 329h-1.03v-2h1.03z"/><use xlink:href="#m" transform="matrix(1,0,0,1,764.3333333333333,317.2) translate(0 14.4)"/><path d="M893.83 328h-11M848.83 328h-5" stroke="#000" stroke-width="2" fill="none"/><path d="M868.83 342c-7.73 0-14-6.27-14-14s6.27-14 14-14c7.74 0 14 6.27 14 14s-6.26 14-14 14z" stroke="#000" stroke-width="2" fill="#fff"/><path d="M868.83 308c-11.04 0-20 8.95-20 20s8.96 20 20 20" stroke="#000" stroke-width="2" fill="none"/><path d="M893.83 328.8h-11v-1.6h11z" fill="none"/><path d="M894.83 328h77" stroke="#000" stroke-width="2" fill="none"/><path d="M894.86 329h-1.03v-2h1.03zM972.83 329h-1.02v-2h1.03z"/><path d="M1154.83 338h10m40 0c0 11.05-8.95 20-20 20-11.04 0-20-8.95-20-20s8.96-20 20-20c11.05 0 20 8.95 20 20z" stroke="#000" stroke-width="2" fill="#fff"/><path d="M1154.83 337.2h10v1.6h-10z" fill="none"/><path d="M1135.83 337h18v2h-20v-10h-20.47v-2h22.47zm-140-8v-2h10.48v2z"/><path d="M1154.83 339h-1.02v-2h1.03zM995.86 329h-1.03v-2h1.03z"/><path d="M1204.83 318h150v40h-150z" stroke="#000" stroke-opacity="0" stroke-width="2" fill="#fff" fill-opacity="0"/><use xlink:href="#e" transform="matrix(1,0,0,1,1209.8333333333335,323) translate(0 18.15)"/><path d="M973.83 848h20v20h-20z" stroke="#666" stroke-width="2" fill="#fff"/><path d="M1154.83 858h10m40 0c0 11.05-8.95 20-20 20-11.04 0-20-8.95-20-20s8.96-20 20-20c11.05 0 20 8.95 20 20z" stroke="#000" stroke-width="2" fill="#fff"/><path d="M1154.83 857.2h10v1.6h-10z" fill="none"/><path d="M1041.9 859h-46.07v-2h46.08zm111.93 0h-46.07v-2h46.07z"/><path d="M1154.83 859h-1.02v-2h1.03zM995.86 859h-1.03v-2h1.03z"/><use xlink:href="#n" transform="matrix(1,0,0,1,1041.9083333333335,847.2) translate(0 14.4)"/><path d="M1204.83 838h150v40h-150z" stroke="#000" stroke-opacity="0" stroke-width="2" fill="#fff" fill-opacity="0"/><use xlink:href="#o" transform="matrix(1,0,0,1,1209.8333333333335,843) translate(0 18.15)"/><path d="M563.83 378h160v400h-160z" stroke="#000" stroke-width="2" fill="#fff"/><path d="M543.83 468h40v20h-40zM543.83 668h40v20h-40z" stroke="#000" stroke-width="2" fill="#fff"/><use xlink:href="#p" transform="matrix(1,0,0,1,579.8333333333334,418) translate(28.575000000000003 153.3)"/><use xlink:href="#k" transform="matrix(1,0,0,1,579.8333333333334,418) translate(92.42500000000001 153.3)"/><use xlink:href="#q" transform="matrix(1,0,0,1,579.8333333333334,418) translate(30.074999999999996 174.9)"/><path d="M713.83 418h20v20h-20z" stroke="#666" stroke-width="2" fill="#fff"/><path d="M924.83 398h-11M879.83 398h-5" stroke="#000" stroke-width="2" fill="none"/><path d="M899.83 412c-7.73 0-14-6.27-14-14s6.27-14 14-14c7.74 0 14 6.27 14 14s-6.26 14-14 14z" stroke="#000" stroke-width="2" fill="#fff"/><path d="M899.83 378c-11.04 0-20 8.95-20 20s8.96 20 20 20" stroke="#000" stroke-width="2" fill="none"/><path d="M924.83 398.8h-11v-1.6h11z" fill="none"/><path d="M873.83 398h-20v30h-118" stroke="#000" stroke-width="2" fill="none"/><path d="M874.83 399h-1.02v-2h1.03zM735.86 429h-1.03v-2h1.03z"/><use xlink:href="#r" transform="matrix(1,0,0,1,751.5110451595425,402.40000000000003) translate(0 14.4)"/><path d="M925.83 398h23v30h23" stroke="#000" stroke-width="2" fill="none"/><path d="M925.86 399h-1.03v-2h1.03zM972.83 429h-1.02v-2h1.03z"/><path d="M1154.83 458h10m40 0c0 11.05-8.95 20-20 20-11.04 0-20-8.95-20-20s8.96-20 20-20c11.05 0 20 8.95 20 20z" stroke="#000" stroke-width="2" fill="#fff"/><path d="M1154.83 457.2h10v1.6h-10z" fill="none"/><path d="M1204.83 438h150v40h-150z" stroke="#000" stroke-opacity="0" stroke-width="2" fill="#fff" fill-opacity="0"/><use xlink:href="#d" transform="matrix(1,0,0,1,1209.8333333333335,443) translate(0 18.15)"/><path d="M1124.83 457h29v2h-31v-30h-22.5v-2h24.5zm-129-28v-2h26.4v2z"/><path d="M1154.83 459h-1.02v-2h1.03zM995.86 429h-1.03v-2h1.03z"/><path d="M874.83 458h11M919.83 458h5" stroke="#000" stroke-width="2" fill="none"/><path d="M899.83 444c7.74 0 14 6.27 14 14s-6.26 14-14 14c-7.73 0-14-6.27-14-14s6.27-14 14-14z" stroke="#000" stroke-width="2" fill="#fff"/><path d="M899.83 478c11.05 0 20-8.95 20-20s-8.95-20-20-20" stroke="#000" stroke-width="2" fill="none"/><path d="M874.83 457.2h11v1.6h-11z" fill="none"/><path d="M925.83 458h23v-30h23" stroke="#000" stroke-width="2" fill="none"/><path d="M925.86 459h-1.03v-2h1.03zM972.83 429h-1.02v-2h1.03z"/><path d="M873.83 458h-20v-30h-118" stroke="#000" stroke-width="2" fill="none"/><path d="M874.83 459h-1.02v-2h1.03zM735.86 429h-1.03v-2h1.03z"/><path d="M713.83 538h20v20h-20z" stroke="#666" stroke-width="2" fill="#fff"/><path d="M929.83 518h-11M884.83 518h-5" stroke="#000" stroke-width="2" fill="none"/><path d="M904.83 532c-7.73 0-14-6.27-14-14s6.27-14 14-14c7.74 0 14 6.27 14 14s-6.26 14-14 14z" stroke="#000" stroke-width="2" fill="#fff"/><path d="M904.83 498c-11.04 0-20 8.95-20 20s8.96 20 20 20" stroke="#000" stroke-width="2" fill="none"/><path d="M929.83 518.8h-11v-1.6h11z" fill="none"/><path d="M930.83 518h20.5v30h20.5" stroke="#000" stroke-width="2" fill="none"/><path d="M930.86 519h-1.03v-2h1.03zM972.83 549h-1.02v-2h1.03z"/><path d="M879.83 578h11M924.83 578h5" stroke="#000" stroke-width="2" fill="none"/><path d="M904.83 564c7.74 0 14 6.27 14 14s-6.26 14-14 14c-7.73 0-14-6.27-14-14s6.27-14 14-14z" stroke="#000" stroke-width="2" fill="#fff"/><path d="M904.83 598c11.05 0 20-8.95 20-20s-8.95-20-20-20" stroke="#000" stroke-width="2" fill="none"/><path d="M879.83 577.2h11v1.6h-11z" fill="none"/><path d="M930.83 578h20.5v-30h20.5" stroke="#000" stroke-width="2" fill="none"/><path d="M930.86 579h-1.03v-2h1.03zM972.83 549h-1.02v-2h1.03zM854.83 577h24v2h-26v-30h-40.55v-2h42.55zm-119-28v-2h16.6v2z"/><path d="M879.83 579h-1.02v-2h1.03zM735.86 549h-1.03v-2h1.03z"/><path d="M752.43 549h-16.6v-2h16.6zm126.4-30h-24v30h-42.55v-2h40.55v-30h26z"/><path d="M879.83 519h-1.02v-2h1.03zM735.86 549h-1.03v-2h1.03z"/><use xlink:href="#f" transform="matrix(1,0,0,1,752.4305201023155,537.2) translate(0 14.4)"/><g fill="none"><path d="M890.83 638h-10m30 20c-11.04 0-20-8.95-20-20s8.96-20 20-20" stroke="#000" stroke-width="2"/><path d="M910.83 658c-11.04 0-20-8.95-20-20s8.96-20 20-20zM890.83 638.8h-10v-1.6h10z"/></g><path d="M743.6 669h-7.77v-2h7.76zm136.23-30h-15v30h-14.2v-2h12.2v-30h17z"/><path d="M735.86 669h-1.03v-2h1.03zM880.83 639h-1.02v-2h1.03z"/><use xlink:href="#c" transform="matrix(1,0,0,1,743.5903773361722,657.2) translate(0 14.4)"/><path d="M713.83 658h20v20h-20z" stroke="#666" stroke-width="2" fill="#fff"/><path d="M910.83 618h150v40h-150z" stroke="#000" stroke-opacity="0" stroke-width="2" fill="#fff" fill-opacity="0"/><use xlink:href="#e" transform="matrix(1,0,0,1,915.833333333217,623) translate(0 18.15)"/><path d="M880.83 698h10m40 0c0 11.05-8.95 20-20 20-11.04 0-20-8.95-20-20s8.96-20 20-20c11.05 0 20 8.95 20 20z" stroke="#000" stroke-width="2" fill="#fff"/><path d="M880.83 697.2h10v1.6h-10z" fill="none"/><path d="M864.83 697h15v2h-17v-30h-12.2v-2h14.2zm-129-28v-2h7.76v2z"/><path d="M880.83 699h-1.02v-2h1.03zM735.86 669h-1.03v-2h1.03z"/><path d="M930.83 678h150v40h-150z" stroke="#000" stroke-opacity="0" stroke-width="2" fill="#fff" fill-opacity="0"/><use xlink:href="#e" transform="matrix(1,0,0,1,935.833333333217,683) translate(0 18.15)"/><path d="M563.83 798h160v120h-160z" stroke="#000" stroke-width="2" fill="#fff"/><path d="M543.83 818h40v20h-40zM543.83 878h40v20h-40z" stroke="#000" stroke-width="2" fill="#fff"/><g><use xlink:href="#s" transform="matrix(1,0,0,1,579.8333333333334,810) translate(25.074999999999996 40.8)"/><use xlink:href="#k" transform="matrix(1,0,0,1,579.8333333333334,810) translate(95.92500000000001 40.8)"/><use xlink:href="#t" transform="matrix(1,0,0,1,579.8333333333334,810) translate(-2.875 62.4)"/></g><path d="M725.83 858h245.2" stroke="#000" stroke-width="2" fill="none"/><path d="M725.86 859h-1.03v-2h1.03z"/><path d="M953.65 868.18L970.87 858l-17.22-10.18" stroke="#000" stroke-width="2" fill="none"/><path d="M973.83 748h20v20h-20z" stroke="#666" stroke-width="2" fill="#fff"/><path d="M1154.83 758h10m40 0c0 11.05-8.95 20-20 20-11.04 0-20-8.95-20-20s8.96-20 20-20c11.05 0 20 8.95 20 20z" stroke="#000" stroke-width="2" fill="#fff"/><path d="M1154.83 757.2h10v1.6h-10z" fill="none"/><path d="M1045.4 759h-49.57v-2h49.58zm108.43 0h-49.57v-2h49.57z"/><path d="M1154.83 759h-1.02v-2h1.03zM995.86 759h-1.03v-2h1.03z"/><g><use xlink:href="#u" transform="matrix(1,0,0,1,1045.4083333333335,747.2) translate(0 14.4)"/></g><path d="M1204.83 738h150v40h-150z" stroke="#000" stroke-opacity="0" stroke-width="2" fill="#fff" fill-opacity="0"/><g><use xlink:href="#n" transform="matrix(1,0,0,1,1209.8333333333335,743) translate(0 18.15)"/></g><path d="M971.02 758h-4.1m-8.16 0h-8.18m-8.17 0h-8.16m-8.17 0h-8.18m-8.18 0h-8.17m-8.18 0h-8.17m-8.17 0h-8.17m-8.18 0h-8.17m-8.16 0h-8.17m-8.18 0h-8.18m-8.17 0h-8.18m-8.17 0h-8.17m-8.17 0h-8.18m-8.17 0h-8.16m-8.17 0h-8.18m-8.18 0h-4.1M953.65 768.18L970.87 758l-17.22-10.18" stroke="#000" stroke-width="2" fill="none"/><path d="M725.86 759h-1.03v-2h1.03z"/><defs><path d="M143 0L79-87 56-68V0H24v-261h32v163l83-92h37l-77 82L181 0h-38" id="v"/><path d="M101-251c82-7 93 87 43 132L82-64C71-53 59-42 53-27h129V0H18c2-99 128-94 128-182 0-28-16-43-45-43s-46 15-49 41l-32-3c6-41 34-60 81-64" id="w"/><path d="M16-82v-28h88v28H16" id="x"/><path d="M114-163C36-179 61-72 57 0H25l-1-190h30c1 12-1 29 2 39 6-27 23-49 58-41v29" id="y"/><path d="M100-194c63 0 86 42 84 106H49c0 40 14 67 53 68 26 1 43-12 49-29l28 8c-11 28-37 45-77 45C44 4 14-33 15-96c1-61 26-98 85-98zm52 81c6-60-76-77-97-28-3 7-6 17-6 28h103" id="z"/><path d="M177-190C167-65 218 103 67 71c-23-6-38-20-44-43l32-5c15 47 100 32 89-28v-30C133-14 115 1 83 1 29 1 15-40 15-95c0-56 16-97 71-98 29-1 48 16 59 35 1-10 0-23 2-32h30zM94-22c36 0 50-32 50-73 0-42-14-75-50-75-39 0-46 34-46 75s6 73 46 73" id="A"/><path d="M24-231v-30h32v30H24zM24 0v-190h32V0H24" id="B"/><path d="M135-143c-3-34-86-38-87 0 15 53 115 12 119 90S17 21 10-45l28-5c4 36 97 45 98 0-10-56-113-15-118-90-4-57 82-63 122-42 12 7 21 19 24 35" id="C"/><path d="M59-47c-2 24 18 29 38 22v24C64 9 27 4 27-40v-127H5v-23h24l9-43h21v43h35v23H59v120" id="D"/><path d="M179-190L93 31C79 59 56 82 12 73V49c39 6 53-20 64-50L1-190h34L92-34l54-156h33" id="E"/><g id="a"><use transform="matrix(0.05,0,0,0.05,0,0)" xlink:href="#v"/><use transform="matrix(0.05,0,0,0.05,9,0)" xlink:href="#w"/><use transform="matrix(0.05,0,0,0.05,19,0)" xlink:href="#x"/><use transform="matrix(0.05,0,0,0.05,24.95,0)" xlink:href="#y"/><use transform="matrix(0.05,0,0,0.05,30.899999999999995,0)" xlink:href="#z"/><use transform="matrix(0.05,0,0,0.05,40.9,0)" xlink:href="#A"/><use transform="matrix(0.05,0,0,0.05,50.9,0)" xlink:href="#B"/><use transform="matrix(0.05,0,0,0.05,54.85,0)" xlink:href="#C"/><use transform="matrix(0.05,0,0,0.05,63.85,0)" xlink:href="#D"/><use transform="matrix(0.05,0,0,0.05,68.85,0)" xlink:href="#y"/><use transform="matrix(0.05,0,0,0.05,74.8,0)" xlink:href="#E"/></g><path d="M198-261c85 0 136 45 136 128 0 61-22 111-78 115-29 2-39-18-37-44-12 23-32 44-66 44-41 0-58-28-58-68 0-60 30-105 88-108 29-1 43 15 54 32l7-28h28c-9 45-23 84-27 134-1 11 6 17 14 16 39-4 51-48 51-92 0-69-42-107-112-107-93 0-145 59-145 153C53-15 94 26 168 27c43 0 78-13 106-28l9 19c-30 18-67 32-115 32C79 50 28-1 28-86c0-107 62-175 170-175zM158-41c46 0 70-43 70-90 0-26-17-40-43-40-44 0-59 41-61 85-1 26 9 45 34 45" id="F"/><g id="b"><use transform="matrix(0.05,0,0,0.05,0,0)" xlink:href="#F"/><use transform="matrix(0.05,0,0,0.05,18.25,0)" xlink:href="#y"/><use transform="matrix(0.05,0,0,0.05,24.2,0)" xlink:href="#z"/><use transform="matrix(0.05,0,0,0.05,34.2,0)" xlink:href="#A"/><use transform="matrix(0.05,0,0,0.05,44.2,0)" xlink:href="#B"/><use transform="matrix(0.05,0,0,0.05,48.150000000000006,0)" xlink:href="#C"/><use transform="matrix(0.05,0,0,0.05,57.150000000000006,0)" xlink:href="#D"/><use transform="matrix(0.05,0,0,0.05,62.150000000000006,0)" xlink:href="#z"/><use transform="matrix(0.05,0,0,0.05,72.15,0)" xlink:href="#y"/></g><path d="M141-36C126-15 110 5 73 4 37 3 15-17 15-53c-1-64 63-63 125-63 3-35-9-54-41-54-24 1-41 7-42 31l-33-3c5-37 33-52 76-52 45 0 72 20 72 64v82c-1 20 7 32 28 27v20c-31 9-61-2-59-35zM48-53c0 20 12 33 32 33 41-3 63-29 60-74-43 2-92-5-92 41" id="G"/><path d="M100-194c62-1 85 37 85 99 1 63-27 99-86 99S16-35 15-95c0-66 28-99 85-99zM99-20c44 1 53-31 53-75 0-43-8-75-51-75s-53 32-53 75 10 74 51 75" id="H"/><path d="M117-194c89-4 53 116 60 194h-32v-121c0-31-8-49-39-48C34-167 62-67 57 0H25l-1-190h30c1 10-1 24 2 32 11-22 29-35 61-36" id="I"/><g id="c"><use transform="matrix(0.05,0,0,0.05,0,0)" xlink:href="#F"/><use transform="matrix(0.05,0,0,0.05,18.25,0)" xlink:href="#y"/><use transform="matrix(0.05,0,0,0.05,24.2,0)" xlink:href="#z"/><use transform="matrix(0.05,0,0,0.05,34.2,0)" xlink:href="#A"/><use transform="matrix(0.05,0,0,0.05,44.2,0)" xlink:href="#B"/><use transform="matrix(0.05,0,0,0.05,48.150000000000006,0)" xlink:href="#C"/><use transform="matrix(0.05,0,0,0.05,57.150000000000006,0)" xlink:href="#D"/><use transform="matrix(0.05,0,0,0.05,62.150000000000006,0)" xlink:href="#y"/><use transform="matrix(0.05,0,0,0.05,68.10000000000001,0)" xlink:href="#G"/><use transform="matrix(0.05,0,0,0.05,78.10000000000001,0)" xlink:href="#D"/><use transform="matrix(0.05,0,0,0.05,83.10000000000001,0)" xlink:href="#B"/><use transform="matrix(0.05,0,0,0.05,87.05000000000001,0)" xlink:href="#H"/><use transform="matrix(0.05,0,0,0.05,97.05000000000001,0)" xlink:href="#I"/></g><path d="M140-251c81 0 123 46 123 126C263-46 219 4 140 4 59 4 17-45 17-125s42-126 123-126zm0 227c63 0 89-41 89-101s-29-99-89-99c-61 0-89 39-89 99S79-25 140-24" id="J"/><path d="M115-194c53 0 69 39 70 98 0 66-23 100-70 100C84 3 66-7 56-30L54 0H23l1-261h32v101c10-23 28-34 59-34zm-8 174c40 0 45-34 45-75 0-40-5-75-45-74-42 0-51 32-51 76 0 43 10 73 51 73" id="K"/><path d="M24-231v-30h32v30H24zM-9 49c24 4 33-6 33-30v-209h32V24c2 40-23 58-65 49V49" id="L"/><path d="M96-169c-40 0-48 33-48 73s9 75 48 75c24 0 41-14 43-38l32 2c-6 37-31 61-74 61-59 0-76-41-82-99-10-93 101-131 147-64 4 7 5 14 7 22l-32 3c-4-21-16-35-41-35" id="M"/><g id="d"><use transform="matrix(0.05,0,0,0.05,0,0)" xlink:href="#J"/><use transform="matrix(0.05,0,0,0.05,14,0)" xlink:href="#K"/><use transform="matrix(0.05,0,0,0.05,24,0)" xlink:href="#L"/><use transform="matrix(0.05,0,0,0.05,27.950000000000003,0)" xlink:href="#z"/><use transform="matrix(0.05,0,0,0.05,37.95,0)" xlink:href="#M"/><use transform="matrix(0.05,0,0,0.05,46.95,0)" xlink:href="#D"/></g><path d="M63-220v92h138v28H63V0H30v-248h175v28H63" id="N"/><path d="M84 4C-5 8 30-112 23-190h32v120c0 31 7 50 39 49 72-2 45-101 50-169h31l1 190h-30c-1-10 1-25-2-33-11 22-28 36-60 37" id="O"/><g id="e"><use transform="matrix(0.05,0,0,0.05,0,0)" xlink:href="#N"/><use transform="matrix(0.05,0,0,0.05,10.950000000000001,0)" xlink:href="#O"/><use transform="matrix(0.05,0,0,0.05,20.950000000000003,0)" xlink:href="#I"/><use transform="matrix(0.05,0,0,0.05,30.950000000000003,0)" xlink:href="#M"/><use transform="matrix(0.05,0,0,0.05,39.95,0)" xlink:href="#D"/><use transform="matrix(0.05,0,0,0.05,44.95,0)" xlink:href="#B"/><use transform="matrix(0.05,0,0,0.05,48.900000000000006,0)" xlink:href="#H"/><use transform="matrix(0.05,0,0,0.05,58.900000000000006,0)" xlink:href="#I"/></g><path d="M108 0H70L1-190h34L89-25l56-165h34" id="P"/><g id="f"><use transform="matrix(0.05,0,0,0.05,0,0)" xlink:href="#y"/><use transform="matrix(0.05,0,0,0.05,5.95,0)" xlink:href="#z"/><use transform="matrix(0.05,0,0,0.05,15.949999999999998,0)" xlink:href="#D"/><use transform="matrix(0.05,0,0,0.05,20.95,0)" xlink:href="#y"/><use transform="matrix(0.05,0,0,0.05,26.899999999999995,0)" xlink:href="#B"/><use transform="matrix(0.05,0,0,0.05,30.849999999999994,0)" xlink:href="#z"/><use transform="matrix(0.05,0,0,0.05,40.849999999999994,0)" xlink:href="#P"/><use transform="matrix(0.05,0,0,0.05,49.849999999999994,0)" xlink:href="#z"/></g><path d="M210-169c-67 3-38 105-44 169h-31v-121c0-29-5-50-35-48C34-165 62-65 56 0H25l-1-190h30c1 10-1 24 2 32 10-44 99-50 107 0 11-21 27-35 58-36 85-2 47 119 55 194h-31v-121c0-29-5-49-35-48" id="Q"/><g id="g"><use transform="matrix(0.05,0,0,0.05,0,0)" xlink:href="#I"/><use transform="matrix(0.05,0,0,0.05,10,0)" xlink:href="#G"/><use transform="matrix(0.05,0,0,0.05,20,0)" xlink:href="#Q"/><use transform="matrix(0.05,0,0,0.05,34.95,0)" xlink:href="#z"/></g><path d="M33-154v-36h34v36H33zM33 0v-36h34V0H33" id="R"/><use transform="matrix(0.05,0,0,0.05,0,0)" xlink:href="#R" id="h"/><path d="M185-189c-5-48-123-54-124 2 14 75 158 14 163 119 3 78-121 87-175 55-17-10-28-26-33-46l33-7c5 56 141 63 141-1 0-78-155-14-162-118-5-82 145-84 179-34 5 7 8 16 11 25" id="S"/><g id="i"><use transform="matrix(0.05,0,0,0.05,0,0)" xlink:href="#S"/><use transform="matrix(0.05,0,0,0.05,12,0)" xlink:href="#D"/><use transform="matrix(0.05,0,0,0.05,17,0)" xlink:href="#y"/><use transform="matrix(0.05,0,0,0.05,22.95,0)" xlink:href="#B"/><use transform="matrix(0.05,0,0,0.05,26.899999999999995,0)" xlink:href="#I"/><use transform="matrix(0.05,0,0,0.05,36.9,0)" xlink:href="#A"/></g><g id="j"><use transform="matrix(0.05,0,0,0.05,0,0)" xlink:href="#y"/><use transform="matrix(0.05,0,0,0.05,5.95,0)" xlink:href="#z"/><use transform="matrix(0.05,0,0,0.05,15.949999999999998,0)" xlink:href="#A"/><use transform="matrix(0.05,0,0,0.05,25.950000000000003,0)" xlink:href="#B"/><use transform="matrix(0.05,0,0,0.05,29.899999999999995,0)" xlink:href="#C"/><use transform="matrix(0.05,0,0,0.05,38.9,0)" xlink:href="#D"/><use transform="matrix(0.05,0,0,0.05,43.9,0)" xlink:href="#y"/><use transform="matrix(0.05,0,0,0.05,49.85,0)" xlink:href="#G"/><use transform="matrix(0.05,0,0,0.05,59.85,0)" xlink:href="#D"/><use transform="matrix(0.05,0,0,0.05,64.85,0)" xlink:href="#B"/><use transform="matrix(0.05,0,0,0.05,68.8,0)" xlink:href="#H"/><use transform="matrix(0.05,0,0,0.05,78.8,0)" xlink:href="#I"/><use transform="matrix(0.05,0,0,0.05,88.8,0)" xlink:href="#C"/></g><use transform="matrix(0.05,0,0,0.05,0,0)" xlink:href="#R" id="k"/><path d="M30 0v-248h33v221h125V0H30" id="T"/><g id="l"><use transform="matrix(0.05,0,0,0.05,0,0)" xlink:href="#T"/><use transform="matrix(0.05,0,0,0.05,10,0)" xlink:href="#B"/><use transform="matrix(0.05,0,0,0.05,13.949999999999998,0)" xlink:href="#C"/><use transform="matrix(0.05,0,0,0.05,22.95,0)" xlink:href="#D"/></g><path d="M115-194c55 1 70 41 70 98S169 2 115 4C84 4 66-9 55-30l1 105H24l-1-265h31l2 30c10-21 28-34 59-34zm-8 174c40 0 45-34 45-75s-6-73-45-74c-42 0-51 32-51 76 0 43 10 73 51 73" id="U"/><path d="M85-194c31 0 48 13 60 33l-1-100h32l1 261h-30c-2-10 0-23-3-31C134-8 116 4 85 4 32 4 16-35 15-94c0-66 23-100 70-100zm9 24c-40 0-46 34-46 75 0 40 6 74 45 74 42 0 51-32 51-76 0-42-9-74-50-73" id="V"/><g id="m"><use transform="matrix(0.05,0,0,0.05,0,0)" xlink:href="#G"/><use transform="matrix(0.05,0,0,0.05,10,0)" xlink:href="#U"/><use transform="matrix(0.05,0,0,0.05,20,0)" xlink:href="#z"/><use transform="matrix(0.05,0,0,0.05,30,0)" xlink:href="#I"/><use transform="matrix(0.05,0,0,0.05,40,0)" xlink:href="#V"/></g><path d="M233-177c-1 41-23 64-60 70L243 0h-38l-65-103H63V0H30v-248c88 3 205-21 203 71zM63-129c60-2 137 13 137-47 0-61-80-42-137-45v92" id="W"/><g id="n"><use transform="matrix(0.05,0,0,0.05,0,0)" xlink:href="#W"/><use transform="matrix(0.05,0,0,0.05,12.950000000000001,0)" xlink:href="#z"/><use transform="matrix(0.05,0,0,0.05,22.950000000000003,0)" xlink:href="#A"/><use transform="matrix(0.05,0,0,0.05,32.95,0)" xlink:href="#B"/><use transform="matrix(0.05,0,0,0.05,36.900000000000006,0)" xlink:href="#C"/><use transform="matrix(0.05,0,0,0.05,45.900000000000006,0)" xlink:href="#D"/><use transform="matrix(0.05,0,0,0.05,50.900000000000006,0)" xlink:href="#y"/><use transform="matrix(0.05,0,0,0.05,56.85,0)" xlink:href="#E"/></g><path d="M212-179c-10-28-35-45-73-45-59 0-87 40-87 99 0 60 29 101 89 101 43 0 62-24 78-52l27 14C228-24 195 4 139 4 59 4 22-46 18-125c-6-104 99-153 187-111 19 9 31 26 39 46" id="X"/><path d="M24 0v-261h32V0H24" id="Y"/><path d="M18-100v-36l175-74v27L42-118l151 64v27" id="Z"/><path d="M18-27v-27l151-64-151-65v-27l175 74v36" id="aa"/><g id="o"><use transform="matrix(0.05,0,0,0.05,0,0)" xlink:href="#X"/><use transform="matrix(0.05,0,0,0.05,12.950000000000001,0)" xlink:href="#Y"/><use transform="matrix(0.05,0,0,0.05,16.900000000000002,0)" xlink:href="#G"/><use transform="matrix(0.05,0,0,0.05,26.900000000000002,0)" xlink:href="#C"/><use transform="matrix(0.05,0,0,0.05,35.900000000000006,0)" xlink:href="#C"/><use transform="matrix(0.05,0,0,0.05,44.900000000000006,0)" xlink:href="#Z"/><use transform="matrix(0.05,0,0,0.05,55.400000000000006,0)" xlink:href="#W"/><use transform="matrix(0.05,0,0,0.05,68.35000000000001,0)" xlink:href="#z"/><use transform="matrix(0.05,0,0,0.05,78.35000000000001,0)" xlink:href="#A"/><use transform="matrix(0.05,0,0,0.05,88.35000000000001,0)" xlink:href="#B"/><use transform="matrix(0.05,0,0,0.05,92.30000000000001,0)" xlink:href="#C"/><use transform="matrix(0.05,0,0,0.05,101.30000000000001,0)" xlink:href="#D"/><use transform="matrix(0.05,0,0,0.05,106.30000000000001,0)" xlink:href="#y"/><use transform="matrix(0.05,0,0,0.05,112.25,0)" xlink:href="#E"/><use transform="matrix(0.05,0,0,0.05,121.25,0)" xlink:href="#aa"/></g><g id="p"><use transform="matrix(0.05,0,0,0.05,0,0)" xlink:href="#y"/><use transform="matrix(0.05,0,0,0.05,5.95,0)" xlink:href="#z"/><use transform="matrix(0.05,0,0,0.05,15.949999999999998,0)" xlink:href="#A"/><use transform="matrix(0.05,0,0,0.05,25.950000000000003,0)" xlink:href="#B"/><use transform="matrix(0.05,0,0,0.05,29.899999999999995,0)" xlink:href="#C"/><use transform="matrix(0.05,0,0,0.05,38.9,0)" xlink:href="#D"/><use transform="matrix(0.05,0,0,0.05,43.9,0)" xlink:href="#y"/><use transform="matrix(0.05,0,0,0.05,49.85,0)" xlink:href="#E"/></g><g id="q"><use transform="matrix(0.05,0,0,0.05,0,0)" xlink:href="#W"/><use transform="matrix(0.05,0,0,0.05,12.950000000000001,0)" xlink:href="#z"/><use transform="matrix(0.05,0,0,0.05,22.950000000000003,0)" xlink:href="#A"/><use transform="matrix(0.05,0,0,0.05,32.95,0)" xlink:href="#B"/><use transform="matrix(0.05,0,0,0.05,36.900000000000006,0)" xlink:href="#C"/><use transform="matrix(0.05,0,0,0.05,45.900000000000006,0)" xlink:href="#D"/><use transform="matrix(0.05,0,0,0.05,50.900000000000006,0)" xlink:href="#y"/><use transform="matrix(0.05,0,0,0.05,56.85,0)" xlink:href="#E"/></g><g id="r"><use transform="matrix(0.05,0,0,0.05,0,0)" xlink:href="#F"/><use transform="matrix(0.05,0,0,0.05,18.25,0)" xlink:href="#y"/><use transform="matrix(0.05,0,0,0.05,24.2,0)" xlink:href="#z"/><use transform="matrix(0.05,0,0,0.05,34.2,0)" xlink:href="#A"/><use transform="matrix(0.05,0,0,0.05,44.2,0)" xlink:href="#B"/><use transform="matrix(0.05,0,0,0.05,48.150000000000006,0)" xlink:href="#C"/><use transform="matrix(0.05,0,0,0.05,57.150000000000006,0)" xlink:href="#A"/><use transform="matrix(0.05,0,0,0.05,67.15,0)" xlink:href="#D"/><use transform="matrix(0.05,0,0,0.05,72.15,0)" xlink:href="#z"/><use transform="matrix(0.05,0,0,0.05,82.15,0)" xlink:href="#y"/></g><g id="s"><use transform="matrix(0.05,0,0,0.05,0,0)" xlink:href="#W"/><use transform="matrix(0.05,0,0,0.05,12.950000000000001,0)" xlink:href="#z"/><use transform="matrix(0.05,0,0,0.05,22.950000000000003,0)" xlink:href="#A"/><use transform="matrix(0.05,0,0,0.05,32.95,0)" xlink:href="#B"/><use transform="matrix(0.05,0,0,0.05,36.900000000000006,0)" xlink:href="#C"/><use transform="matrix(0.05,0,0,0.05,45.900000000000006,0)" xlink:href="#D"/><use transform="matrix(0.05,0,0,0.05,50.900000000000006,0)" xlink:href="#y"/><use transform="matrix(0.05,0,0,0.05,56.85,0)" xlink:href="#E"/></g><g id="t"><use transform="matrix(0.05,0,0,0.05,0,0)" xlink:href="#X"/><use transform="matrix(0.05,0,0,0.05,12.950000000000001,0)" xlink:href="#Y"/><use transform="matrix(0.05,0,0,0.05,16.900000000000002,0)" xlink:href="#G"/><use transform="matrix(0.05,0,0,0.05,26.900000000000002,0)" xlink:href="#C"/><use transform="matrix(0.05,0,0,0.05,35.900000000000006,0)" xlink:href="#C"/><use transform="matrix(0.05,0,0,0.05,44.900000000000006,0)" xlink:href="#Z"/><use transform="matrix(0.05,0,0,0.05,55.400000000000006,0)" xlink:href="#W"/><use transform="matrix(0.05,0,0,0.05,68.35000000000001,0)" xlink:href="#z"/><use transform="matrix(0.05,0,0,0.05,78.35000000000001,0)" xlink:href="#A"/><use transform="matrix(0.05,0,0,0.05,88.35000000000001,0)" xlink:href="#B"/><use transform="matrix(0.05,0,0,0.05,92.30000000000001,0)" xlink:href="#C"/><use transform="matrix(0.05,0,0,0.05,101.30000000000001,0)" xlink:href="#D"/><use transform="matrix(0.05,0,0,0.05,106.30000000000001,0)" xlink:href="#y"/><use transform="matrix(0.05,0,0,0.05,112.25,0)" xlink:href="#E"/><use transform="matrix(0.05,0,0,0.05,121.25,0)" xlink:href="#aa"/></g><g id="u"><use transform="matrix(0.05,0,0,0.05,0,0)" xlink:href="#y"/><use transform="matrix(0.05,0,0,0.05,5.95,0)" xlink:href="#z"/><use transform="matrix(0.05,0,0,0.05,15.949999999999998,0)" xlink:href="#A"/><use transform="matrix(0.05,0,0,0.05,25.950000000000003,0)" xlink:href="#B"/><use transform="matrix(0.05,0,0,0.05,29.899999999999995,0)" xlink:href="#C"/><use transform="matrix(0.05,0,0,0.05,38.9,0)" xlink:href="#D"/><use transform="matrix(0.05,0,0,0.05,43.9,0)" xlink:href="#y"/><use transform="matrix(0.05,0,0,0.05,49.85,0)" xlink:href="#E"/></g></defs></g></svg>