<svg xmlns="http://www.w3.org/2000/svg" xmlns:xlink="http://www.w3.org/1999/xlink" xmlns:lucid="lucid" width="1133" height="500"><g transform="translate(-372.83333333341096 -348)" lucid:page-tab-id="0_0"><path d="M392.83 368h660v40h-660z" stroke="#666" stroke-width="2" fill-opacity="0"/><path d="M1042.83 378h-15v20h15z" stroke="#666" fill-opacity="0"/><path d="M1032.83 381.33h-10v3.34h10zm0 10h-10v3.34h10z" stroke="#666" fill-opacity="0"/><use xlink:href="#a" transform="matrix(1,0,0,1,392.83333333341096,368) translate(282.08 24.4)"/><path d="M392.83 408h660v400h-660z" stroke="#666" stroke-width="2" fill-opacity="0"/><path d="M431.83 432h160v60h-160z" stroke="#000" stroke-width="2" fill="#fff"/><path d="M411.83 437h40v20h-40zM411.83 467h40v20h-40z" stroke="#000" stroke-width="2" fill="#fff"/><use xlink:href="#b" transform="matrix(1,0,0,1,447.83333333337225,438) translate(9.100000000000001 16.799999999999997)"/><use xlink:href="#c" transform="matrix(1,0,0,1,447.83333333337225,438) translate(111.9 16.799999999999997)"/><use xlink:href="#d" transform="matrix(1,0,0,1,447.83333333337225,438) translate(49.025 38.4)"/><g fill="none"><path d="M1295.83 428h-10m30 20c-11.04 0-20-8.95-20-20s8.96-20 20-20" stroke="#000" stroke-width="2"/><path d="M1315.83 448c-11.04 0-20-8.95-20-20s8.96-20 20-20zM1295.83 428.8h-10v-1.6h10z"/></g><path d="M1089.9 463h-24.57v-2h24.56zm194.93-34h-18v34h-69.9v-2h67.9v-34h20z"/><path d="M1065.36 463h-1.03v-2h1.03zM1285.83 429h-1.02v-2h1.03z"/><use xlink:href="#e" transform="matrix(1,0,0,1,1089.8916666666694,451.2) translate(0 14.4)"/><path d="M1043.33 452h20v20h-20z" stroke="#666" stroke-width="2" fill="#fff"/><path d="M1315.83 408h150v40h-150z" stroke="#000" stroke-opacity="0" stroke-width="2" fill="#fff" fill-opacity="0"/><use xlink:href="#f" transform="matrix(1,0,0,1,1320.8333333332557,413) translate(0 18.15)"/><path d="M1285.83 488h10m40 0c0 11.05-8.95 20-20 20-11.04 0-20-8.95-20-20s8.96-20 20-20c11.05 0 20 8.95 20 20z" stroke="#000" stroke-width="2" fill="#fff"/><path d="M1285.83 487.2h10v1.6h-10z" fill="none"/><path d="M1266.83 487h18v2h-20v-26h-67.9v-2h69.9zm-201.5-24v-2h24.56v2z"/><path d="M1285.83 489h-1.02v-2h1.03zM1065.36 463h-1.03v-2h1.03z"/><path d="M1335.83 468h150v40h-150z" stroke="#000" stroke-opacity="0" stroke-width="2" fill="#fff" fill-opacity="0"/><use xlink:href="#f" transform="matrix(1,0,0,1,1340.8333333332557,473) translate(0 18.15)"/><path d="M582.83 452h20v20h-20z" stroke="#666" stroke-width="2" fill="#fff"/><path d="M633.33 463h-28.5v-2h28.5zm78.5 0h-28.5v-2h28.5z"/><path d="M712.83 463h-1.02v-2h1.03zM604.86 463h-1.03v-2h1.03z"/><use xlink:href="#g" transform="matrix(1,0,0,1,633.3333333333723,451.2) translate(0 14.4)"/><path d="M762.83 462h-11M717.83 462h-5" stroke="#000" stroke-width="2" fill="none"/><path d="M737.83 476c-7.73 0-14-6.27-14-14s6.27-14 14-14c7.74 0 14 6.27 14 14s-6.26 14-14 14z" stroke="#000" stroke-width="2" fill="#fff"/><path d="M737.83 442c-11.04 0-20 8.95-20 20s8.96 20 20 20" stroke="#000" stroke-width="2" fill="none"/><path d="M762.83 462.8h-11v-1.6h11z" fill="none"/><path d="M763.83 462h277.5" stroke="#000" stroke-width="2" fill="none"/><path d="M763.86 463h-1.03v-2h1.03zM1042.33 463h-1.02v-2h1.03z"/><g fill="none"><path d="M1228.83 608h-10m30 20c-11.04 0-20-8.95-20-20s8.96-20 20-20" stroke="#000" stroke-width="2"/><path d="M1248.83 628c-11.04 0-20-8.95-20-20s8.96-20 20-20zM1228.83 608.8h-10v-1.6h10z"/></g><path d="M1113.25 639h-47.92v-2h47.92zm104.58-30h-29v30h-15.73v-2h13.73v-30h31z"/><path d="M1065.36 639h-1.03v-2h1.03zM1218.83 609h-1.02v-2h1.03z"/><use xlink:href="#h" transform="matrix(1,0,0,1,1113.2526821548795,627.2) translate(0 14.4)"/><path d="M1043.33 628h20v20h-20z" stroke="#666" stroke-width="2" fill="#fff"/><path d="M1248.83 588h150v40h-150z" stroke="#000" stroke-opacity="0" stroke-width="2" fill="#fff" fill-opacity="0"/><use xlink:href="#i" transform="matrix(1,0,0,1,1253.8333333333721,593) translate(0 18.15)"/><path d="M1218.83 668h10m40 0c0 11.05-8.95 20-20 20-11.04 0-20-8.95-20-20s8.96-20 20-20c11.05 0 20 8.95 20 20z" stroke="#000" stroke-width="2" fill="#fff"/><path d="M1218.83 667.2h10v1.6h-10z" fill="none"/><path d="M1268.83 648h150v40h-150z" stroke="#000" stroke-opacity="0" stroke-width="2" fill="#fff" fill-opacity="0"/><use xlink:href="#i" transform="matrix(1,0,0,1,1273.8333333333721,653) translate(0 18.15)"/><path d="M1188.83 667h29v2h-31v-30h-13.73v-2h15.73zm-123.5-28v-2h47.92v2z"/><path d="M1218.83 669h-1.02v-2h1.03zM1065.36 639h-1.03v-2h1.03z"/><path d="M1043.33 768h20v20h-20z" stroke="#666" stroke-width="2" fill="#fff"/><path d="M1224.33 808h10m40 0c0 11.05-8.95 20-20 20-11.04 0-20-8.95-20-20s8.96-20 20-20c11.05 0 20 8.95 20 20z" stroke="#000" stroke-width="2" fill="#fff"/><path d="M1224.33 807.2h10v1.6h-10z" fill="none"/><g fill="none"><path d="M1234.33 748h-10m30 20c-11.04 0-20-8.95-20-20s8.96-20 20-20" stroke="#000" stroke-width="2"/><path d="M1254.33 768c-11.04 0-20-8.95-20-20s8.96-20 20-20zM1234.33 748.8h-10v-1.6h10z"/></g><path d="M1095.27 779h-29.94v-2h29.94zm128.06-30h-18v30h-50.2v-2h48.2v-30h20z"/><path d="M1224.33 749h-1.02v-2h1.03zM1065.36 779h-1.03v-2h1.03z"/><path d="M1205.33 807h18v2h-20v-30h-48.2v-2h50.2zm-140-28v-2h29.94v2z"/><path d="M1224.33 809h-1.02v-2h1.03zM1065.36 779h-1.03v-2h1.03z"/><use xlink:href="#j" transform="matrix(1,0,0,1,1095.2666493785496,767.2) translate(0 14.4)"/><path d="M1254.33 728h150v40h-150z" stroke="#000" stroke-opacity="0" stroke-width="2" fill="#fff" fill-opacity="0"/><use xlink:href="#k" transform="matrix(1,0,0,1,1259.3333333333721,733) translate(0 18.15)"/><use xlink:href="#l" transform="matrix(1,0,0,1,1259.3333333333721,733) translate(49.95 18.15)"/><use xlink:href="#m" transform="matrix(1,0,0,1,1259.3333333333721,733) translate(59.95 18.15)"/><path d="M1274.33 788h150v40h-150z" stroke="#000" stroke-opacity="0" stroke-width="2" fill="#fff" fill-opacity="0"/><use xlink:href="#i" transform="matrix(1,0,0,1,1279.3333333333721,793) translate(0 18.15)"/><path d="M431.83 628h220v160h-220z" stroke="#000" stroke-width="2" fill="#fff"/><path d="M411.83 658h40v20h-40zM411.83 738h40v20h-40z" stroke="#000" stroke-width="2" fill="#fff"/><use xlink:href="#n" transform="matrix(1,0,0,1,459.83333333337225,644) translate(49.575 56.8)"/><use xlink:href="#c" transform="matrix(1,0,0,1,459.83333333337225,644) translate(113.42500000000001 56.8)"/><use xlink:href="#o" transform="matrix(1,0,0,1,459.83333333337225,644) translate(4.099999999999994 78.4)"/><path d="M727.34 659h-63.27v-2h63.27zm175.5-20h-118.4v20h-32.1v-2h30.1v-20h120.4z"/><path d="M664.1 659h-1.03v-2h1.03zM903.83 639h-1.02v-2h1.03z"/><use xlink:href="#p" transform="matrix(1,0,0,1,727.3350650757,647.2) translate(0 14.4)"/><path d="M953.83 638h-11M908.83 638h-5" stroke="#000" stroke-width="2" fill="none"/><path d="M928.83 652c-7.73 0-14-6.27-14-14s6.27-14 14-14c7.74 0 14 6.27 14 14s-6.26 14-14 14z" stroke="#000" stroke-width="2" fill="#fff"/><path d="M928.83 618c-11.04 0-20 8.95-20 20s8.96 20 20 20" stroke="#000" stroke-width="2" fill="none"/><path d="M953.83 638.8h-11v-1.6h11z" fill="none"/><path d="M954.83 638h86.5" stroke="#000" stroke-width="2" fill="none"/><path d="M954.86 639h-1.03v-2h1.03zM1042.33 639h-1.02v-2h1.03z"/><path d="M642.07 648h20v20h-20zM642.07 748h20v20h-20z" stroke="#666" stroke-width="2" fill="#fff"/><path d="M903.83 778h11M948.83 778h5" stroke="#000" stroke-width="2" fill="none"/><path d="M928.83 764c7.74 0 14 6.27 14 14s-6.26 14-14 14c-7.73 0-14-6.27-14-14s6.27-14 14-14z" stroke="#000" stroke-width="2" fill="#fff"/><path d="M928.83 798c11.05 0 20-8.95 20-20s-8.95-20-20-20" stroke="#000" stroke-width="2" fill="none"/><path d="M903.83 777.2h11v1.6h-11z" fill="none"/><path d="M784.45 777h118.38v2H782.45v-20h-64v-2h66zm-120.38-18v-2h29.4v2z"/><path d="M664.1 759h-1.03v-2h1.03zM903.83 779h-1.02v-2h1.03z"/><use xlink:href="#q" transform="matrix(1,0,0,1,693.4636816653599,747.2) translate(0 14.4)"/><path d="M954.83 778h86.5" stroke="#000" stroke-width="2" fill="none"/><path d="M954.86 779h-1.03v-2h1.03zM1042.33 779h-1.02v-2h1.03z"/><path d="M712.83 568h20v20h-20z" stroke="#666" stroke-width="2" fill="#fff"/><g><path d="M953.83 578h-11M908.83 578h-5" stroke="#000" stroke-width="2" fill="none"/><path d="M928.83 592c-7.73 0-14-6.27-14-14s6.27-14 14-14c7.74 0 14 6.27 14 14s-6.26 14-14 14z" stroke="#000" stroke-width="2" fill="#fff"/><path d="M928.83 558c-11.04 0-20 8.95-20 20s8.96 20 20 20" stroke="#000" stroke-width="2" fill="none"/><path d="M953.83 578.8h-11v-1.6h11z" fill="none"/></g><path d="M744.96 579h-10.13v-2h10.13zm157.87 0H892.7v-2h10.13z"/><path d="M903.83 579h-1.02v-2h1.03zM734.86 579h-1.03v-2h1.03z"/><g><use xlink:href="#r" transform="matrix(1,0,0,1,744.9583333333237,567.2000000000002) translate(0 14.4)"/></g><path d="M954.83 578h17v60h69.5" stroke="#000" stroke-width="2" fill="none"/><path d="M954.86 579h-1.03v-2h1.03zM1042.33 639h-1.02v-2h1.03z"/><path d="M431.83 512h240.24v60H431.83z" stroke="#000" stroke-width="2" fill="#fff"/><path d="M411.83 517h40v20h-40zM411.83 547h40v20h-40z" stroke="#000" stroke-width="2" fill="#fff"/><g><use xlink:href="#s" transform="matrix(1,0,0,1,463.8805774278707,518) translate(-1.125 16.799999999999997)"/><use xlink:href="#l" transform="matrix(1,0,0,1,463.8805774278707,518) translate(72.525 38.4)"/><use xlink:href="#d" transform="matrix(1,0,0,1,463.8805774278707,518) translate(82.525 38.4)"/></g><defs><path d="M233-177c-1 41-23 64-60 70L243 0h-38l-65-103H63V0H30v-248c88 3 205-21 203 71zM63-129c60-2 137 13 137-47 0-61-80-42-137-45v92" id="t"/><path d="M100-194c63 0 86 42 84 106H49c0 40 14 67 53 68 26 1 43-12 49-29l28 8c-11 28-37 45-77 45C44 4 14-33 15-96c1-61 26-98 85-98zm52 81c6-60-76-77-97-28-3 7-6 17-6 28h103" id="u"/><path d="M177-190C167-65 218 103 67 71c-23-6-38-20-44-43l32-5c15 47 100 32 89-28v-30C133-14 115 1 83 1 29 1 15-40 15-95c0-56 16-97 71-98 29-1 48 16 59 35 1-10 0-23 2-32h30zM94-22c36 0 50-32 50-73 0-42-14-75-50-75-39 0-46 34-46 75s6 73 46 73" id="v"/><path d="M24-231v-30h32v30H24zM24 0v-190h32V0H24" id="w"/><path d="M135-143c-3-34-86-38-87 0 15 53 115 12 119 90S17 21 10-45l28-5c4 36 97 45 98 0-10-56-113-15-118-90-4-57 82-63 122-42 12 7 21 19 24 35" id="x"/><path d="M59-47c-2 24 18 29 38 22v24C64 9 27 4 27-40v-127H5v-23h24l9-43h21v43h35v23H59v120" id="y"/><path d="M114-163C36-179 61-72 57 0H25l-1-190h30c1 12-1 29 2 39 6-27 23-49 58-41v29" id="z"/><path d="M179-190L93 31C79 59 56 82 12 73V49c39 6 53-20 64-50L1-190h34L92-34l54-156h33" id="A"/><g id="a"><use transform="matrix(0.05,0,0,0.05,0,0)" xlink:href="#t"/><use transform="matrix(0.05,0,0,0.05,12.950000000000001,0)" xlink:href="#u"/><use transform="matrix(0.05,0,0,0.05,22.950000000000003,0)" xlink:href="#v"/><use transform="matrix(0.05,0,0,0.05,32.95,0)" xlink:href="#w"/><use transform="matrix(0.05,0,0,0.05,36.900000000000006,0)" xlink:href="#x"/><use transform="matrix(0.05,0,0,0.05,45.900000000000006,0)" xlink:href="#y"/><use transform="matrix(0.05,0,0,0.05,50.900000000000006,0)" xlink:href="#z"/><use transform="matrix(0.05,0,0,0.05,56.85,0)" xlink:href="#A"/></g><path d="M141-36C126-15 110 5 73 4 37 3 15-17 15-53c-1-64 63-63 125-63 3-35-9-54-41-54-24 1-41 7-42 31l-33-3c5-37 33-52 76-52 45 0 72 20 72 64v82c-1 20 7 32 28 27v20c-31 9-61-2-59-35zM48-53c0 20 12 33 32 33 41-3 63-29 60-74-43 2-92-5-92 41" id="B"/><path d="M100-194c62-1 85 37 85 99 1 63-27 99-86 99S16-35 15-95c0-66 28-99 85-99zM99-20c44 1 53-31 53-75 0-43-8-75-51-75s-53 32-53 75 10 74 51 75" id="C"/><path d="M117-194c89-4 53 116 60 194h-32v-121c0-31-8-49-39-48C34-167 62-67 57 0H25l-1-190h30c1 10-1 24 2 32 11-22 29-35 61-36" id="D"/><g id="b"><use transform="matrix(0.05,0,0,0.05,0,0)" xlink:href="#z"/><use transform="matrix(0.05,0,0,0.05,5.95,0)" xlink:href="#u"/><use transform="matrix(0.05,0,0,0.05,15.949999999999998,0)" xlink:href="#v"/><use transform="matrix(0.05,0,0,0.05,25.950000000000003,0)" xlink:href="#w"/><use transform="matrix(0.05,0,0,0.05,29.899999999999995,0)" xlink:href="#x"/><use transform="matrix(0.05,0,0,0.05,38.9,0)" xlink:href="#y"/><use transform="matrix(0.05,0,0,0.05,43.9,0)" xlink:href="#z"/><use transform="matrix(0.05,0,0,0.05,49.85,0)" xlink:href="#B"/><use transform="matrix(0.05,0,0,0.05,59.85,0)" xlink:href="#y"/><use transform="matrix(0.05,0,0,0.05,64.85,0)" xlink:href="#w"/><use transform="matrix(0.05,0,0,0.05,68.8,0)" xlink:href="#C"/><use transform="matrix(0.05,0,0,0.05,78.8,0)" xlink:href="#D"/><use transform="matrix(0.05,0,0,0.05,88.8,0)" xlink:href="#x"/></g><path d="M33-154v-36h34v36H33zM33 0v-36h34V0H33" id="E"/><use transform="matrix(0.05,0,0,0.05,0,0)" xlink:href="#E" id="c"/><path d="M30 0v-248h33v221h125V0H30" id="F"/><g id="d"><use transform="matrix(0.05,0,0,0.05,0,0)" xlink:href="#F"/><use transform="matrix(0.05,0,0,0.05,10,0)" xlink:href="#w"/><use transform="matrix(0.05,0,0,0.05,13.949999999999998,0)" xlink:href="#x"/><use transform="matrix(0.05,0,0,0.05,22.95,0)" xlink:href="#y"/></g><path d="M198-261c85 0 136 45 136 128 0 61-22 111-78 115-29 2-39-18-37-44-12 23-32 44-66 44-41 0-58-28-58-68 0-60 30-105 88-108 29-1 43 15 54 32l7-28h28c-9 45-23 84-27 134-1 11 6 17 14 16 39-4 51-48 51-92 0-69-42-107-112-107-93 0-145 59-145 153C53-15 94 26 168 27c43 0 78-13 106-28l9 19c-30 18-67 32-115 32C79 50 28-1 28-86c0-107 62-175 170-175zM158-41c46 0 70-43 70-90 0-26-17-40-43-40-44 0-59 41-61 85-1 26 9 45 34 45" id="G"/><g id="e"><use transform="matrix(0.05,0,0,0.05,0,0)" xlink:href="#G"/><use transform="matrix(0.05,0,0,0.05,18.25,0)" xlink:href="#z"/><use transform="matrix(0.05,0,0,0.05,24.2,0)" xlink:href="#u"/><use transform="matrix(0.05,0,0,0.05,34.2,0)" xlink:href="#v"/><use transform="matrix(0.05,0,0,0.05,44.2,0)" xlink:href="#w"/><use transform="matrix(0.05,0,0,0.05,48.150000000000006,0)" xlink:href="#x"/><use transform="matrix(0.05,0,0,0.05,57.150000000000006,0)" xlink:href="#y"/><use transform="matrix(0.05,0,0,0.05,62.150000000000006,0)" xlink:href="#z"/><use transform="matrix(0.05,0,0,0.05,68.10000000000001,0)" xlink:href="#B"/><use transform="matrix(0.05,0,0,0.05,78.10000000000001,0)" xlink:href="#y"/><use transform="matrix(0.05,0,0,0.05,83.10000000000001,0)" xlink:href="#w"/><use transform="matrix(0.05,0,0,0.05,87.05000000000001,0)" xlink:href="#C"/><use transform="matrix(0.05,0,0,0.05,97.05000000000001,0)" xlink:href="#D"/></g><path d="M63-220v92h138v28H63V0H30v-248h175v28H63" id="H"/><path d="M84 4C-5 8 30-112 23-190h32v120c0 31 7 50 39 49 72-2 45-101 50-169h31l1 190h-30c-1-10 1-25-2-33-11 22-28 36-60 37" id="I"/><path d="M96-169c-40 0-48 33-48 73s9 75 48 75c24 0 41-14 43-38l32 2c-6 37-31 61-74 61-59 0-76-41-82-99-10-93 101-131 147-64 4 7 5 14 7 22l-32 3c-4-21-16-35-41-35" id="J"/><g id="f"><use transform="matrix(0.05,0,0,0.05,0,0)" xlink:href="#H"/><use transform="matrix(0.05,0,0,0.05,10.950000000000001,0)" xlink:href="#I"/><use transform="matrix(0.05,0,0,0.05,20.950000000000003,0)" xlink:href="#D"/><use transform="matrix(0.05,0,0,0.05,30.950000000000003,0)" xlink:href="#J"/><use transform="matrix(0.05,0,0,0.05,39.95,0)" xlink:href="#y"/><use transform="matrix(0.05,0,0,0.05,44.95,0)" xlink:href="#w"/><use transform="matrix(0.05,0,0,0.05,48.900000000000006,0)" xlink:href="#C"/><use transform="matrix(0.05,0,0,0.05,58.900000000000006,0)" xlink:href="#D"/></g><path d="M115-194c55 1 70 41 70 98S169 2 115 4C84 4 66-9 55-30l1 105H24l-1-265h31l2 30c10-21 28-34 59-34zm-8 174c40 0 45-34 45-75s-6-73-45-74c-42 0-51 32-51 76 0 43 10 73 51 73" id="K"/><path d="M85-194c31 0 48 13 60 33l-1-100h32l1 261h-30c-2-10 0-23-3-31C134-8 116 4 85 4 32 4 16-35 15-94c0-66 23-100 70-100zm9 24c-40 0-46 34-46 75 0 40 6 74 45 74 42 0 51-32 51-76 0-42-9-74-50-73" id="L"/><g id="g"><use transform="matrix(0.05,0,0,0.05,0,0)" xlink:href="#B"/><use transform="matrix(0.05,0,0,0.05,10,0)" xlink:href="#K"/><use transform="matrix(0.05,0,0,0.05,20,0)" xlink:href="#u"/><use transform="matrix(0.05,0,0,0.05,30,0)" xlink:href="#D"/><use transform="matrix(0.05,0,0,0.05,40,0)" xlink:href="#L"/></g><g id="h"><use transform="matrix(0.05,0,0,0.05,0,0)" xlink:href="#z"/><use transform="matrix(0.05,0,0,0.05,5.95,0)" xlink:href="#u"/><use transform="matrix(0.05,0,0,0.05,15.949999999999998,0)" xlink:href="#v"/><use transform="matrix(0.05,0,0,0.05,25.950000000000003,0)" xlink:href="#w"/><use transform="matrix(0.05,0,0,0.05,29.899999999999995,0)" xlink:href="#x"/><use transform="matrix(0.05,0,0,0.05,38.9,0)" xlink:href="#y"/><use transform="matrix(0.05,0,0,0.05,43.9,0)" xlink:href="#u"/><use transform="matrix(0.05,0,0,0.05,53.900000000000006,0)" xlink:href="#z"/></g><path d="M140-251c81 0 123 46 123 126C263-46 219 4 140 4 59 4 17-45 17-125s42-126 123-126zm0 227c63 0 89-41 89-101s-29-99-89-99c-61 0-89 39-89 99S79-25 140-24" id="M"/><path d="M115-194c53 0 69 39 70 98 0 66-23 100-70 100C84 3 66-7 56-30L54 0H23l1-261h32v101c10-23 28-34 59-34zm-8 174c40 0 45-34 45-75 0-40-5-75-45-74-42 0-51 32-51 76 0 43 10 73 51 73" id="N"/><path d="M24-231v-30h32v30H24zM-9 49c24 4 33-6 33-30v-209h32V24c2 40-23 58-65 49V49" id="O"/><g id="i"><use transform="matrix(0.05,0,0,0.05,0,0)" xlink:href="#M"/><use transform="matrix(0.05,0,0,0.05,14,0)" xlink:href="#N"/><use transform="matrix(0.05,0,0,0.05,24,0)" xlink:href="#O"/><use transform="matrix(0.05,0,0,0.05,27.950000000000003,0)" xlink:href="#u"/><use transform="matrix(0.05,0,0,0.05,37.95,0)" xlink:href="#J"/><use transform="matrix(0.05,0,0,0.05,46.95,0)" xlink:href="#y"/></g><path d="M108 0H70L1-190h34L89-25l56-165h34" id="P"/><g id="j"><use transform="matrix(0.05,0,0,0.05,0,0)" xlink:href="#z"/><use transform="matrix(0.05,0,0,0.05,5.95,0)" xlink:href="#u"/><use transform="matrix(0.05,0,0,0.05,15.949999999999998,0)" xlink:href="#y"/><use transform="matrix(0.05,0,0,0.05,20.95,0)" xlink:href="#z"/><use transform="matrix(0.05,0,0,0.05,26.899999999999995,0)" xlink:href="#w"/><use transform="matrix(0.05,0,0,0.05,30.849999999999994,0)" xlink:href="#u"/><use transform="matrix(0.05,0,0,0.05,40.849999999999994,0)" xlink:href="#P"/><use transform="matrix(0.05,0,0,0.05,49.849999999999994,0)" xlink:href="#u"/></g><path d="M210-169c-67 3-38 105-44 169h-31v-121c0-29-5-50-35-48C34-165 62-65 56 0H25l-1-190h30c1 10-1 24 2 32 10-44 99-50 107 0 11-21 27-35 58-36 85-2 47 119 55 194h-31v-121c0-29-5-49-35-48" id="Q"/><g id="k"><use transform="matrix(0.05,0,0,0.05,0,0)" xlink:href="#D"/><use transform="matrix(0.05,0,0,0.05,10,0)" xlink:href="#B"/><use transform="matrix(0.05,0,0,0.05,20,0)" xlink:href="#Q"/><use transform="matrix(0.05,0,0,0.05,34.95,0)" xlink:href="#u"/></g><use transform="matrix(0.05,0,0,0.05,0,0)" xlink:href="#E" id="l"/><path d="M185-189c-5-48-123-54-124 2 14 75 158 14 163 119 3 78-121 87-175 55-17-10-28-26-33-46l33-7c5 56 141 63 141-1 0-78-155-14-162-118-5-82 145-84 179-34 5 7 8 16 11 25" id="R"/><g id="m"><use transform="matrix(0.05,0,0,0.05,0,0)" xlink:href="#R"/><use transform="matrix(0.05,0,0,0.05,12,0)" xlink:href="#y"/><use transform="matrix(0.05,0,0,0.05,17,0)" xlink:href="#z"/><use transform="matrix(0.05,0,0,0.05,22.95,0)" xlink:href="#w"/><use transform="matrix(0.05,0,0,0.05,26.899999999999995,0)" xlink:href="#D"/><use transform="matrix(0.05,0,0,0.05,36.9,0)" xlink:href="#v"/></g><g id="n"><use transform="matrix(0.05,0,0,0.05,0,0)" xlink:href="#z"/><use transform="matrix(0.05,0,0,0.05,5.95,0)" xlink:href="#u"/><use transform="matrix(0.05,0,0,0.05,15.949999999999998,0)" xlink:href="#v"/><use transform="matrix(0.05,0,0,0.05,25.950000000000003,0)" xlink:href="#w"/><use transform="matrix(0.05,0,0,0.05,29.899999999999995,0)" xlink:href="#x"/><use transform="matrix(0.05,0,0,0.05,38.9,0)" xlink:href="#y"/><use transform="matrix(0.05,0,0,0.05,43.9,0)" xlink:href="#z"/><use transform="matrix(0.05,0,0,0.05,49.85,0)" xlink:href="#A"/></g><path d="M240 0l2-218c-23 76-54 145-80 218h-23L58-218 59 0H30v-248h44l77 211c21-75 51-140 76-211h43V0h-30" id="S"/><path d="M18-100v-36l175-74v27L42-118l151 64v27" id="T"/><path d="M68-38c1 34 0 65-14 84H32c9-13 17-26 17-46H33v-38h35" id="U"/><path d="M18-27v-27l151-64-151-65v-27l175 74v36" id="V"/><g id="o"><use transform="matrix(0.05,0,0,0.05,0,0)" xlink:href="#S"/><use transform="matrix(0.05,0,0,0.05,14.950000000000001,0)" xlink:href="#B"/><use transform="matrix(0.05,0,0,0.05,24.950000000000003,0)" xlink:href="#K"/><use transform="matrix(0.05,0,0,0.05,34.95,0)" xlink:href="#T"/><use transform="matrix(0.05,0,0,0.05,45.45,0)" xlink:href="#R"/><use transform="matrix(0.05,0,0,0.05,57.45,0)" xlink:href="#y"/><use transform="matrix(0.05,0,0,0.05,62.45,0)" xlink:href="#z"/><use transform="matrix(0.05,0,0,0.05,68.4,0)" xlink:href="#w"/><use transform="matrix(0.05,0,0,0.05,72.35000000000001,0)" xlink:href="#D"/><use transform="matrix(0.05,0,0,0.05,82.35000000000001,0)" xlink:href="#v"/><use transform="matrix(0.05,0,0,0.05,92.35000000000001,0)" xlink:href="#U"/><use transform="matrix(0.05,0,0,0.05,97.35000000000001,0)" xlink:href="#M"/><use transform="matrix(0.05,0,0,0.05,111.35000000000001,0)" xlink:href="#N"/><use transform="matrix(0.05,0,0,0.05,121.35000000000001,0)" xlink:href="#O"/><use transform="matrix(0.05,0,0,0.05,125.30000000000001,0)" xlink:href="#u"/><use transform="matrix(0.05,0,0,0.05,135.3,0)" xlink:href="#J"/><use transform="matrix(0.05,0,0,0.05,144.3,0)" xlink:href="#y"/><use transform="matrix(0.05,0,0,0.05,149.3,0)" xlink:href="#V"/></g><g id="p"><use transform="matrix(0.05,0,0,0.05,0,0)" xlink:href="#K"/><use transform="matrix(0.05,0,0,0.05,10,0)" xlink:href="#I"/><use transform="matrix(0.05,0,0,0.05,20,0)" xlink:href="#y"/></g><g id="q"><use transform="matrix(0.05,0,0,0.05,0,0)" xlink:href="#v"/><use transform="matrix(0.05,0,0,0.05,10,0)" xlink:href="#u"/><use transform="matrix(0.05,0,0,0.05,20,0)" xlink:href="#y"/></g><path d="M24 0v-261h32V0H24" id="W"/><g id="r"><use transform="matrix(0.05,0,0,0.05,0,0)" xlink:href="#B"/><use transform="matrix(0.05,0,0,0.05,10,0)" xlink:href="#K"/><use transform="matrix(0.05,0,0,0.05,20,0)" xlink:href="#K"/><use transform="matrix(0.05,0,0,0.05,30,0)" xlink:href="#W"/><use transform="matrix(0.05,0,0,0.05,33.95,0)" xlink:href="#A"/><use transform="matrix(0.05,0,0,0.05,42.95,0)" xlink:href="#t"/><use transform="matrix(0.05,0,0,0.05,55.900000000000006,0)" xlink:href="#u"/><use transform="matrix(0.05,0,0,0.05,65.9,0)" xlink:href="#v"/><use transform="matrix(0.05,0,0,0.05,75.9,0)" xlink:href="#w"/><use transform="matrix(0.05,0,0,0.05,79.85000000000001,0)" xlink:href="#x"/><use transform="matrix(0.05,0,0,0.05,88.85000000000001,0)" xlink:href="#y"/><use transform="matrix(0.05,0,0,0.05,93.85000000000001,0)" xlink:href="#z"/><use transform="matrix(0.05,0,0,0.05,99.80000000000001,0)" xlink:href="#B"/><use transform="matrix(0.05,0,0,0.05,109.80000000000001,0)" xlink:href="#y"/><use transform="matrix(0.05,0,0,0.05,114.80000000000001,0)" xlink:href="#w"/><use transform="matrix(0.05,0,0,0.05,118.75,0)" xlink:href="#C"/><use transform="matrix(0.05,0,0,0.05,128.75,0)" xlink:href="#D"/><use transform="matrix(0.05,0,0,0.05,138.75,0)" xlink:href="#x"/></g><path d="M143 0L79-87 56-68V0H24v-261h32v163l83-92h37l-77 82L181 0h-38" id="X"/><path d="M101-251c82-7 93 87 43 132L82-64C71-53 59-42 53-27h129V0H18c2-99 128-94 128-182 0-28-16-43-45-43s-46 15-49 41l-32-3c6-41 34-60 81-64" id="Y"/><path d="M16-82v-28h88v28H16" id="Z"/><path d="M33 0v-38h34V0H33" id="aa"/><g id="s"><use transform="matrix(0.05,0,0,0.05,0,0)" xlink:href="#X"/><use transform="matrix(0.05,0,0,0.05,9,0)" xlink:href="#Y"/><use transform="matrix(0.05,0,0,0.05,19,0)" xlink:href="#Z"/><use transform="matrix(0.05,0,0,0.05,24.95,0)" xlink:href="#z"/><use transform="matrix(0.05,0,0,0.05,30.899999999999995,0)" xlink:href="#u"/><use transform="matrix(0.05,0,0,0.05,40.9,0)" xlink:href="#v"/><use transform="matrix(0.05,0,0,0.05,50.9,0)" xlink:href="#w"/><use transform="matrix(0.05,0,0,0.05,54.85,0)" xlink:href="#x"/><use transform="matrix(0.05,0,0,0.05,63.85,0)" xlink:href="#y"/><use transform="matrix(0.05,0,0,0.05,68.85,0)" xlink:href="#z"/><use transform="matrix(0.05,0,0,0.05,74.8,0)" xlink:href="#A"/><use transform="matrix(0.05,0,0,0.05,82.45,0)" xlink:href="#aa"/><use transform="matrix(0.05,0,0,0.05,87.45,0)" xlink:href="#z"/><use transform="matrix(0.05,0,0,0.05,93.4,0)" xlink:href="#u"/><use transform="matrix(0.05,0,0,0.05,103.4,0)" xlink:href="#v"/><use transform="matrix(0.05,0,0,0.05,113.4,0)" xlink:href="#w"/><use transform="matrix(0.05,0,0,0.05,117.35000000000001,0)" xlink:href="#x"/><use transform="matrix(0.05,0,0,0.05,126.35000000000001,0)" xlink:href="#y"/><use transform="matrix(0.05,0,0,0.05,131.35000000000002,0)" xlink:href="#z"/><use transform="matrix(0.05,0,0,0.05,137.3,0)" xlink:href="#B"/><use transform="matrix(0.05,0,0,0.05,147.3,0)" xlink:href="#y"/><use transform="matrix(0.05,0,0,0.05,152.3,0)" xlink:href="#w"/><use transform="matrix(0.05,0,0,0.05,156.25,0)" xlink:href="#C"/><use transform="matrix(0.05,0,0,0.05,166.25,0)" xlink:href="#D"/><use transform="matrix(0.05,0,0,0.05,176.25,0)" xlink:href="#x"/></g></defs></g></svg>