<svg xmlns="http://www.w3.org/2000/svg" xmlns:xlink="http://www.w3.org/1999/xlink" xmlns:lucid="lucid" width="697" height="260.33"><g transform="translate(-590.8333333333334 -467.83333333333303)" lucid:page-tab-id="0_0"><path d="M803.07 487.83h140v60h-140z" stroke="#000" stroke-width="2" fill="#fff"/><path d="M783.07 492.83h40v20h-40zM783.07 522.83h40v20h-40z" stroke="#000" stroke-width="2" fill="#fff"/><use xlink:href="#a" transform="matrix(1,0,0,1,815.0695538058644,493.83333333333303) translate(23.074999999999996 27.6)"/><path d="M623.83 604.23H824.9M623.86 604.23h-1.03" stroke="#000" stroke-width="2" fill="none"/><path d="M840.16 604.23l-14.27 4.63v-9.27z" stroke="#000" stroke-width="2"/><use xlink:href="#b" transform="matrix(1,0,0,1,674.7636935241378,578.6277602461555) translate(0.005000000000002558 14.4)"/><path d="M841.07 698.17h-1.97v-2h1.97zm-9.84 0h-3.94v-2h3.93zm-11.8 0h-3.94v-2h3.92zm-11.82 0h-3.92v-2h3.93zm-11.8 0h-3.93v-2h3.94zm-11.8 0h-3.94v-2H784zm-11.8 0h-3.95v-2h3.94zm-11.82 0h-3.93v-2h3.93zm-11.8 0h-3.94v-2h3.93zm-35.43 0h-3.94v-2h3.95zm-11.8 0h-3.94v-2h3.94zm-11.82 0h-3.93v-2h3.93zm-11.8 0h-3.94v-2h3.93zm-11.8 0h-3.95v-2h3.94zm-11.82 0h-3.92v-2h3.93zm-11.8 0h-1.96v-2h1.96z"/><path d="M842.07 698.17h-1.03v-2h1.03zM639.34 701.8l-14.27-4.63 14.27-4.64z"/><path d="M640.34 703.18l-18.5-6 18.5-6.03zm-12.03-6l10.04 3.25v-6.52z"/><use xlink:href="#c" transform="matrix(1,0,0,1,719.9764435695989,686.3666666666666) translate(0.005000000000000782 14.4)"/><path d="M843.07 607.95c0-2.76 2.24-5 5-5h30c2.76 0 5 2.24 5 5v94.88c0 2.76-2.24 5-5 5h-30c-2.76 0-5-2.24-5-5z" stroke="#000" stroke-width="2" fill-opacity="0"/><path d="M863.07 549.83v51.11" stroke="#000" stroke-width="2" fill="none"/><path d="M864.07 549.86h-2v-1.03h2z"/><path d="M863.07 600.92v1.03" stroke="#000" stroke-width="2" fill="none"/><path d="M1047.83 487.83h220v60h-220z" stroke="#000" stroke-width="2" fill="#fff"/><path d="M1027.83 492.83h40v20h-40zM1027.83 522.83h40v20h-40z" stroke="#000" stroke-width="2" fill="#fff"/><use xlink:href="#d" transform="matrix(1,0,0,1,1075.8333333333335,493.83333333333303) translate(49.575 16.799999999999997)"/><use xlink:href="#e" transform="matrix(1,0,0,1,1075.8333333333335,493.83333333333303) translate(113.42500000000001 16.799999999999997)"/><use xlink:href="#f" transform="matrix(1,0,0,1,1075.8333333333335,493.83333333333303) translate(4.099999999999994 38.4)"/><path d="M971.07 630.1h-74.24v-2h74.24zm138.6 0h-56.75v-2h56.74z" fill="#999"/><path d="M896.86 630.1h-1.03v-2h1.03zM1124.92 629.1l-14.26 4.64v-9.27z" fill="#999"/><path d="M1128.16 629.1l-18.5 6.02V623.1zm-16.5 3.27l10.03-3.26-10.04-3.25z" fill="#999"/><use xlink:href="#g" transform="matrix(1,0,0,1,971.070583287853,618.3096500179997) translate(0.005000000000002558 14.4)"/><path d="M1127.83 632.83c0-2.76 2.24-5 5-5h30c2.76 0 5 2.24 5 5v40.4c0 2.76-2.24 5-5 5h-30c-2.76 0-5-2.24-5-5z" stroke="#666" stroke-width="2" fill-opacity="0"/><path d="M1147.83 549.83v76" stroke="#999" stroke-width="2" fill="none"/><path d="M1148.83 549.86h-2v-1.03h2zM1148.83 626.83h-2v-1.02h2z" fill="#999"/><path d="M1125.83 668.83h-2v-2h2zm-10.07 0h-4.03v-2h4.03zm-12.1 0h-4.02v-2h4.03zm-12.08 0h-4.03v-2h4.03zm-12.08 0h-4.03v-2h4.03zm-12.1 0h-4.02v-2h4.03zm-12.08 0h-4.03v-2h4.02zm-12.1 0h-4.02v-2h4.03zm-12.08 0h-4.03v-2h4.04zm-36.26 0h-4.03v-2h4.03zm-12.1 0h-4.02v-2h4.03zm-12.08 0h-4.03v-2h4.03zm-12.1 0h-4.02v-2h4.03zm-12.07 0h-4.03v-2h4.03zm-12.1 0h-4.02v-2h4.04zm-12.08 0h-2v-2h2z"/><path d="M1126.83 668.83h-1.02v-2h1.03zM919.34 672.47l-14.27-4.64 14.27-4.63z"/><path d="M920.34 673.85l-18.5-6.02 18.5-6zm-12.03-6.02l10.04 3.26v-6.53z"/><g><use xlink:href="#c" transform="matrix(1,0,0,1,1002.3583333333335,657.0333333333331) translate(0.005000000000000782 14.4)"/></g><defs><path d="M233-177c-1 41-23 64-60 70L243 0h-38l-65-103H63V0H30v-248c88 3 205-21 203 71zM63-129c60-2 137 13 137-47 0-61-80-42-137-45v92" id="h"/><path d="M100-194c63 0 86 42 84 106H49c0 40 14 67 53 68 26 1 43-12 49-29l28 8c-11 28-37 45-77 45C44 4 14-33 15-96c1-61 26-98 85-98zm52 81c6-60-76-77-97-28-3 7-6 17-6 28h103" id="i"/><path d="M177-190C167-65 218 103 67 71c-23-6-38-20-44-43l32-5c15 47 100 32 89-28v-30C133-14 115 1 83 1 29 1 15-40 15-95c0-56 16-97 71-98 29-1 48 16 59 35 1-10 0-23 2-32h30zM94-22c36 0 50-32 50-73 0-42-14-75-50-75-39 0-46 34-46 75s6 73 46 73" id="j"/><path d="M24-231v-30h32v30H24zM24 0v-190h32V0H24" id="k"/><path d="M135-143c-3-34-86-38-87 0 15 53 115 12 119 90S17 21 10-45l28-5c4 36 97 45 98 0-10-56-113-15-118-90-4-57 82-63 122-42 12 7 21 19 24 35" id="l"/><path d="M59-47c-2 24 18 29 38 22v24C64 9 27 4 27-40v-127H5v-23h24l9-43h21v43h35v23H59v120" id="m"/><path d="M114-163C36-179 61-72 57 0H25l-1-190h30c1 12-1 29 2 39 6-27 23-49 58-41v29" id="n"/><path d="M179-190L93 31C79 59 56 82 12 73V49c39 6 53-20 64-50L1-190h34L92-34l54-156h33" id="o"/><g id="a"><use transform="matrix(0.05,0,0,0.05,0,0)" xlink:href="#h"/><use transform="matrix(0.05,0,0,0.05,12.950000000000001,0)" xlink:href="#i"/><use transform="matrix(0.05,0,0,0.05,22.950000000000003,0)" xlink:href="#j"/><use transform="matrix(0.05,0,0,0.05,32.95,0)" xlink:href="#k"/><use transform="matrix(0.05,0,0,0.05,36.900000000000006,0)" xlink:href="#l"/><use transform="matrix(0.05,0,0,0.05,45.900000000000006,0)" xlink:href="#m"/><use transform="matrix(0.05,0,0,0.05,50.900000000000006,0)" xlink:href="#n"/><use transform="matrix(0.05,0,0,0.05,56.85,0)" xlink:href="#o"/></g><path d="M108 0H70L1-190h34L89-25l56-165h34" id="p"/><path d="M87 75C49 33 22-17 22-94c0-76 28-126 65-167h31c-38 41-64 92-64 168S80 34 118 75H87" id="q"/><path d="M117-194c89-4 53 116 60 194h-32v-121c0-31-8-49-39-48C34-167 62-67 57 0H25l-1-190h30c1 10-1 24 2 32 11-22 29-35 61-36" id="r"/><path d="M141-36C126-15 110 5 73 4 37 3 15-17 15-53c-1-64 63-63 125-63 3-35-9-54-41-54-24 1-41 7-42 31l-33-3c5-37 33-52 76-52 45 0 72 20 72 64v82c-1 20 7 32 28 27v20c-31 9-61-2-59-35zM48-53c0 20 12 33 32 33 41-3 63-29 60-74-43 2-92-5-92 41" id="s"/><path d="M210-169c-67 3-38 105-44 169h-31v-121c0-29-5-50-35-48C34-165 62-65 56 0H25l-1-190h30c1 10-1 24 2 32 10-44 99-50 107 0 11-21 27-35 58-36 85-2 47 119 55 194h-31v-121c0-29-5-49-35-48" id="t"/><path d="M33-261c38 41 65 92 65 168S71 34 33 75H2C39 34 66-17 66-93S39-220 2-261h31" id="u"/><g id="b"><use transform="matrix(0.05,0,0,0.05,0,0)" xlink:href="#n"/><use transform="matrix(0.05,0,0,0.05,5.95,0)" xlink:href="#i"/><use transform="matrix(0.05,0,0,0.05,15.949999999999998,0)" xlink:href="#m"/><use transform="matrix(0.05,0,0,0.05,20.95,0)" xlink:href="#n"/><use transform="matrix(0.05,0,0,0.05,26.899999999999995,0)" xlink:href="#k"/><use transform="matrix(0.05,0,0,0.05,30.849999999999994,0)" xlink:href="#i"/><use transform="matrix(0.05,0,0,0.05,40.849999999999994,0)" xlink:href="#p"/><use transform="matrix(0.05,0,0,0.05,49.849999999999994,0)" xlink:href="#i"/><use transform="matrix(0.05,0,0,0.05,59.849999999999994,0)" xlink:href="#q"/><use transform="matrix(0.05,0,0,0.05,65.8,0)" xlink:href="#r"/><use transform="matrix(0.05,0,0,0.05,75.8,0)" xlink:href="#s"/><use transform="matrix(0.05,0,0,0.05,85.8,0)" xlink:href="#t"/><use transform="matrix(0.05,0,0,0.05,100.75,0)" xlink:href="#i"/><use transform="matrix(0.05,0,0,0.05,110.75,0)" xlink:href="#u"/></g><path d="M100-194c62-1 85 37 85 99 1 63-27 99-86 99S16-35 15-95c0-66 28-99 85-99zM99-20c44 1 53-31 53-75 0-43-8-75-51-75s-53 32-53 75 10 74 51 75" id="v"/><path d="M115-194c53 0 69 39 70 98 0 66-23 100-70 100C84 3 66-7 56-30L54 0H23l1-261h32v101c10-23 28-34 59-34zm-8 174c40 0 45-34 45-75 0-40-5-75-45-74-42 0-51 32-51 76 0 43 10 73 51 73" id="w"/><path d="M24-231v-30h32v30H24zM-9 49c24 4 33-6 33-30v-209h32V24c2 40-23 58-65 49V49" id="x"/><g id="c"><use transform="matrix(0.05,0,0,0.05,0,0)" xlink:href="#v"/><use transform="matrix(0.05,0,0,0.05,10,0)" xlink:href="#w"/><use transform="matrix(0.05,0,0,0.05,20,0)" xlink:href="#x"/></g><g id="d"><use transform="matrix(0.05,0,0,0.05,0,0)" xlink:href="#n"/><use transform="matrix(0.05,0,0,0.05,5.95,0)" xlink:href="#i"/><use transform="matrix(0.05,0,0,0.05,15.949999999999998,0)" xlink:href="#j"/><use transform="matrix(0.05,0,0,0.05,25.950000000000003,0)" xlink:href="#k"/><use transform="matrix(0.05,0,0,0.05,29.899999999999995,0)" xlink:href="#l"/><use transform="matrix(0.05,0,0,0.05,38.9,0)" xlink:href="#m"/><use transform="matrix(0.05,0,0,0.05,43.9,0)" xlink:href="#n"/><use transform="matrix(0.05,0,0,0.05,49.85,0)" xlink:href="#o"/></g><path d="M33-154v-36h34v36H33zM33 0v-36h34V0H33" id="y"/><use transform="matrix(0.05,0,0,0.05,0,0)" xlink:href="#y" id="e"/><path d="M240 0l2-218c-23 76-54 145-80 218h-23L58-218 59 0H30v-248h44l77 211c21-75 51-140 76-211h43V0h-30" id="z"/><path d="M115-194c55 1 70 41 70 98S169 2 115 4C84 4 66-9 55-30l1 105H24l-1-265h31l2 30c10-21 28-34 59-34zm-8 174c40 0 45-34 45-75s-6-73-45-74c-42 0-51 32-51 76 0 43 10 73 51 73" id="A"/><path d="M18-100v-36l175-74v27L42-118l151 64v27" id="B"/><path d="M185-189c-5-48-123-54-124 2 14 75 158 14 163 119 3 78-121 87-175 55-17-10-28-26-33-46l33-7c5 56 141 63 141-1 0-78-155-14-162-118-5-82 145-84 179-34 5 7 8 16 11 25" id="C"/><path d="M68-38c1 34 0 65-14 84H32c9-13 17-26 17-46H33v-38h35" id="D"/><path d="M140-251c81 0 123 46 123 126C263-46 219 4 140 4 59 4 17-45 17-125s42-126 123-126zm0 227c63 0 89-41 89-101s-29-99-89-99c-61 0-89 39-89 99S79-25 140-24" id="E"/><path d="M96-169c-40 0-48 33-48 73s9 75 48 75c24 0 41-14 43-38l32 2c-6 37-31 61-74 61-59 0-76-41-82-99-10-93 101-131 147-64 4 7 5 14 7 22l-32 3c-4-21-16-35-41-35" id="F"/><path d="M18-27v-27l151-64-151-65v-27l175 74v36" id="G"/><g id="f"><use transform="matrix(0.05,0,0,0.05,0,0)" xlink:href="#z"/><use transform="matrix(0.05,0,0,0.05,14.950000000000001,0)" xlink:href="#s"/><use transform="matrix(0.05,0,0,0.05,24.950000000000003,0)" xlink:href="#A"/><use transform="matrix(0.05,0,0,0.05,34.95,0)" xlink:href="#B"/><use transform="matrix(0.05,0,0,0.05,45.45,0)" xlink:href="#C"/><use transform="matrix(0.05,0,0,0.05,57.45,0)" xlink:href="#m"/><use transform="matrix(0.05,0,0,0.05,62.45,0)" xlink:href="#n"/><use transform="matrix(0.05,0,0,0.05,68.4,0)" xlink:href="#k"/><use transform="matrix(0.05,0,0,0.05,72.35000000000001,0)" xlink:href="#r"/><use transform="matrix(0.05,0,0,0.05,82.35000000000001,0)" xlink:href="#j"/><use transform="matrix(0.05,0,0,0.05,92.35000000000001,0)" xlink:href="#D"/><use transform="matrix(0.05,0,0,0.05,97.35000000000001,0)" xlink:href="#E"/><use transform="matrix(0.05,0,0,0.05,111.35000000000001,0)" xlink:href="#w"/><use transform="matrix(0.05,0,0,0.05,121.35000000000001,0)" xlink:href="#x"/><use transform="matrix(0.05,0,0,0.05,125.30000000000001,0)" xlink:href="#i"/><use transform="matrix(0.05,0,0,0.05,135.3,0)" xlink:href="#F"/><use transform="matrix(0.05,0,0,0.05,144.3,0)" xlink:href="#m"/><use transform="matrix(0.05,0,0,0.05,149.3,0)" xlink:href="#G"/></g><g id="g"><use transform="matrix(0.05,0,0,0.05,0,0)" xlink:href="#j"/><use transform="matrix(0.05,0,0,0.05,10,0)" xlink:href="#i"/><use transform="matrix(0.05,0,0,0.05,20,0)" xlink:href="#m"/><use transform="matrix(0.05,0,0,0.05,25,0)" xlink:href="#q"/><use transform="matrix(0.05,0,0,0.05,30.950000000000003,0)" xlink:href="#r"/><use transform="matrix(0.05,0,0,0.05,40.95,0)" xlink:href="#s"/><use transform="matrix(0.05,0,0,0.05,50.95,0)" xlink:href="#t"/><use transform="matrix(0.05,0,0,0.05,65.9,0)" xlink:href="#i"/><use transform="matrix(0.05,0,0,0.05,75.9,0)" xlink:href="#u"/></g></defs></g></svg>