<svg xmlns="http://www.w3.org/2000/svg" xmlns:xlink="http://www.w3.org/1999/xlink" xmlns:lucid="lucid" width="1106" height="710"><g transform="translate(-386.33333333333337 -243)" lucid:page-tab-id="0_0"><path d="M1000.33 553h140v60h-140z" stroke="#000" stroke-width="2" fill="#fff"/><path d="M980.33 558h40v20h-40zM980.33 588h40v20h-40z" stroke="#000" stroke-width="2" fill="#fff"/><use xlink:href="#a" transform="matrix(1,0,0,1,1012.3333333332752,559) translate(23.074999999999996 27.6)"/><path d="M821.1 669.4h201.05M821.12 669.4h-1.02" stroke="#000" stroke-width="2" fill="none"/><path d="M1037.42 669.4l-14.27 4.63v-9.27z" stroke="#000" stroke-width="2"/><use xlink:href="#b" transform="matrix(1,0,0,1,882.5274730515486,643.7944269128224) translate(0.005000000000002558 14.4)"/><path d="M1038.33 903.33h-1.95v-2h1.95zm-9.78 0h-3.9v-2h3.9zm-11.73 0h-3.9v-2h3.9zm-11.74 0h-3.9v-2h3.9zm-11.73 0h-3.9v-2h3.9zm-11.74 0h-3.9v-2h3.9zm-11.72 0h-3.9v-2h3.9zm-11.74 0h-3.9v-2h3.9zm-11.73 0h-3.9v-2h3.9zm-35.2 0h-3.9v-2h3.9zm-11.73 0h-3.9v-2h3.9zm-11.74 0h-3.9v-2h3.9zm-11.73 0h-3.92v-2H876zm-11.74 0h-3.9v-2h3.9zm-11.73 0h-3.92v-2h3.93zm-11.74 0h-1.96v-2h1.95z"/><path d="M1039.33 903.33h-1.02v-2h1.03zM837.84 906.97l-14.27-4.64 14.27-4.63z"/><path d="M838.84 908.35l-18.5-6.02 18.5-6zm-12.03-6.02l10.04 3.26v-6.53z"/><use xlink:href="#c" transform="matrix(1,0,0,1,917.8583333333044,891.5333333333335) translate(0.005000000000000782 14.4)"/><path d="M1040.33 673.12c0-2.76 2.24-5 5-5h30c2.76 0 5 2.24 5 5V908c0 2.76-2.24 5-5 5h-30c-2.76 0-5-2.24-5-5z" stroke="#000" stroke-width="2" fill-opacity="0"/><path d="M1060.33 615v51.12" stroke="#000" stroke-width="2" fill="none"/><path d="M1061.33 615.03h-2V614h2z"/><path d="M1060.33 666.1v1.02" stroke="#000" stroke-width="2" fill="none"/><path d="M1059.33 698.16c0-2.76 2.24-5 5-5h30c2.76 0 5 2.24 5 5v51.15c0 2.78-2.24 5-5 5h-30c-2.76 0-5-2.22-5-5z" stroke="#666" stroke-width="2" fill="#fff"/><path d="M1079.33 691.16V674" stroke="#999" stroke-width="2" fill="none"/><path d="M1080.33 692.16h-2v-1.03h2z" fill="#999"/><path d="M1079.33 674.03V673M1118.84 705.47h16.5c2.75 0 5-2.24 5-5V686c0-2.76-2.25-5-5-5h-55" stroke="#999" stroke-width="2" fill="none"/><path d="M1103.57 705.47l14.27-4.64v9.27z" stroke="#999" stroke-width="2" fill="#999"/><path d="M1080.36 681h-1.03" stroke="#999" stroke-width="2" fill="none"/><use xlink:href="#d" transform="matrix(1,0,0,1,1148.3333333332753,690.0270887004237) translate(0.0049999999999954525 14.4)"/><path d="M1252.33 263h220v60h-220z" stroke="#000" stroke-width="2" fill="#fff"/><path d="M1232.33 268h40v20h-40zM1232.33 298h40v20h-40z" stroke="#000" stroke-width="2" fill="#fff"/><use xlink:href="#e" transform="matrix(1,0,0,1,1280.3333333333335,269) translate(49.575 16.799999999999997)"/><use xlink:href="#f" transform="matrix(1,0,0,1,1280.3333333333335,269) translate(113.42500000000001 16.799999999999997)"/><use xlink:href="#g" transform="matrix(1,0,0,1,1280.3333333333335,269) translate(4.099999999999994 38.4)"/><path d="M1158.6 835.28h-57.27v-2h57.27zm155.56 0h-39.76v-2h39.76z" fill="#999"/><path d="M1101.36 835.28h-1.03v-2h1.03zM1329.42 834.28l-14.26 4.63v-9.26z" fill="#999"/><path d="M1332.66 834.28l-18.5 6v-12.02zm-16.5 3.26l10.03-3.26-10.04-3.26z" fill="#999"/><use xlink:href="#h" transform="matrix(1,0,0,1,1158.5955832878528,823.4763166846667) translate(0.005000000000002558 14.4)"/><use xlink:href="#i" transform="matrix(1,0,0,1,1158.5955832878528,823.4763166846667) translate(85.905 14.4)"/><path d="M1332.33 838c0-2.76 2.24-5 5-5h30c2.76 0 5 2.24 5 5v40.4c0 2.76-2.24 5-5 5h-30c-2.76 0-5-2.24-5-5z" stroke="#666" stroke-width="2" fill-opacity="0"/><path d="M1352.33 325v506" stroke="#999" stroke-width="2" fill="none"/><path d="M1353.33 325.03h-2V324h2zM1353.33 832h-2v-1.03h2z" fill="#999"/><path d="M597.57 263h140v60h-140z" stroke="#000" stroke-width="2" fill="#fff"/><path d="M577.57 268h40v20h-40zM577.57 298h40v20h-40z" stroke="#000" stroke-width="2" fill="#fff"/><use xlink:href="#a" transform="matrix(1,0,0,1,609.5695538058256,269) translate(23.074999999999996 27.6)"/><path d="M418.33 379.4H619.4M418.36 379.4h-1.03" stroke="#000" stroke-width="2" fill="none"/><path d="M634.66 379.4l-14.27 4.63v-9.27z" stroke="#000" stroke-width="2"/><use xlink:href="#j" transform="matrix(1,0,0,1,469.26369352409904,353.7944269128224) translate(0.005000000000002558 14.4)"/><path d="M635.57 515.55h-1.96v-2h1.97zm-9.8 0h-3.9v-2h3.9zm-11.74 0h-3.92v-2h3.93zm-11.75 0h-3.92v-2h3.92zm-11.75 0h-3.9v-2h3.9zm-11.75 0h-3.9v-2h3.9zm-94 0h-3.9v-2h3.9zm-11.74 0h-3.92v-2h3.92zm-11.75 0h-3.92v-2h3.9zm-11.76 0h-3.9v-2h3.9zm-11.75 0h-1.96v-2h1.95zm129.23 0h-2.13v-2h2.13z"/><path d="M636.57 515.55h-1.03v-2h1.03zM434.84 519.18l-14.27-4.63 14.27-4.64z"/><path d="M435.84 520.56l-18.5-6 18.5-6.02zm-12.03-6l10.04 3.25v-6.5z"/><use xlink:href="#k" transform="matrix(1,0,0,1,489.0014435695795,503.74855643851146) translate(0.005000000000002558 14.4)"/><path d="M637.57 383.12c0-2.76 2.24-5 5-5h30c2.76 0 5 2.24 5 5v139.76c0 2.76-2.24 5-5 5h-30c-2.76 0-5-2.24-5-5z" stroke="#000" stroke-width="2" fill-opacity="0"/><path d="M657.57 325v51.12" stroke="#000" stroke-width="2" fill="none"/><path d="M658.57 325.03h-2V324h2z"/><path d="M657.57 376.1v1.02" stroke="#000" stroke-width="2" fill="none"/><path d="M862.33 367.88h140v60h-140z" stroke="#000" stroke-width="2" fill="#fff"/><path d="M842.33 372.88h40v20h-40zM842.33 402.88h40v20h-40z" stroke="#000" stroke-width="2" fill="#fff"/><use xlink:href="#l" transform="matrix(1,0,0,1,874.333333333217,373.8818897718447) translate(13.049999999999997 16.799999999999997)"/><use xlink:href="#f" transform="matrix(1,0,0,1,874.333333333217,373.8818897718447) translate(93.95 16.799999999999997)"/><use xlink:href="#m" transform="matrix(1,0,0,1,874.333333333217,373.8818897718447) translate(21.549999999999997 38.4)"/><path d="M902.33 470.22c0-2.77 2.24-5 5-5h30c2.76 0 5 2.23 5 5v30.87c0 2.75-2.24 5-5 5h-30c-2.76 0-5-2.25-5-5z" stroke="#666" stroke-width="2" fill-opacity="0"/><path d="M899.52 486.65h-3.87v-2h3.87zm-11.6 0h-7.75v-2h7.74zm-15.5 0h-7.72v-2h7.73zm-160.32 0h-2.16v-2h2.16zm-9.9 0h-3.87v-2h3.87z" fill="#999"/><path d="M901.33 485.65l-18.67 11.04-1.02-1.73 15.76-9.32-15.76-9.32 1.02-1.72zM698.36 486.65h-1.03v-2h1.03z" fill="#999"/><use xlink:href="#n" transform="matrix(1,0,0,1,712.1000000000001,474.85091864654095) translate(0.0049999999999954525 14.4)"/><use xlink:href="#o" transform="matrix(1,0,0,1,712.1000000000001,474.85091864654095) translate(30.004999999999995 14.4)"/><path d="M922.33 463.22V452.1m0-11.1v-11.12" stroke="#999" stroke-width="2" fill="none"/><path d="M923.33 464.22h-2v-1.03h2zM923.33 429.9h-2v-1.02h2z" fill="#999"/><path d="M783.33 507.88h100v20l-10 10h-90z" fill="#fff"/><path d="M883.33 507.88v20l-10 10h-90" stroke="#000" stroke-width="2" fill="none"/><path d="M783.33 507.88h617V933h-617z" stroke="#000" stroke-width="2" fill="none"/><g><use xlink:href="#p" transform="matrix(1,0,0,1,791.3333333333334,507.8818897718447) translate(0 18.6)"/></g><path d="M1091.83 770.44h300v40h-300z" stroke="#000" stroke-opacity="0" stroke-width="2" fill="#fff" fill-opacity="0"/><g><use xlink:href="#q" transform="matrix(1,0,0,1,1096.8333333333335,775.4409448859224) translate(0 18.15)"/><use xlink:href="#r" transform="matrix(1,0,0,1,1096.8333333333335,775.4409448859224) translate(49.95 18.15)"/><use xlink:href="#s" transform="matrix(1,0,0,1,1096.8333333333335,775.4409448859224) translate(65.45 18.15)"/><use xlink:href="#t" transform="matrix(1,0,0,1,1096.8333333333335,775.4409448859224) translate(115.4 18.15)"/><use xlink:href="#u" transform="matrix(1,0,0,1,1096.8333333333335,775.4409448859224) translate(129.70000000000002 18.15)"/></g><defs><path d="M233-177c-1 41-23 64-60 70L243 0h-38l-65-103H63V0H30v-248c88 3 205-21 203 71zM63-129c60-2 137 13 137-47 0-61-80-42-137-45v92" id="v"/><path d="M100-194c63 0 86 42 84 106H49c0 40 14 67 53 68 26 1 43-12 49-29l28 8c-11 28-37 45-77 45C44 4 14-33 15-96c1-61 26-98 85-98zm52 81c6-60-76-77-97-28-3 7-6 17-6 28h103" id="w"/><path d="M177-190C167-65 218 103 67 71c-23-6-38-20-44-43l32-5c15 47 100 32 89-28v-30C133-14 115 1 83 1 29 1 15-40 15-95c0-56 16-97 71-98 29-1 48 16 59 35 1-10 0-23 2-32h30zM94-22c36 0 50-32 50-73 0-42-14-75-50-75-39 0-46 34-46 75s6 73 46 73" id="x"/><path d="M24-231v-30h32v30H24zM24 0v-190h32V0H24" id="y"/><path d="M135-143c-3-34-86-38-87 0 15 53 115 12 119 90S17 21 10-45l28-5c4 36 97 45 98 0-10-56-113-15-118-90-4-57 82-63 122-42 12 7 21 19 24 35" id="z"/><path d="M59-47c-2 24 18 29 38 22v24C64 9 27 4 27-40v-127H5v-23h24l9-43h21v43h35v23H59v120" id="A"/><path d="M114-163C36-179 61-72 57 0H25l-1-190h30c1 12-1 29 2 39 6-27 23-49 58-41v29" id="B"/><path d="M179-190L93 31C79 59 56 82 12 73V49c39 6 53-20 64-50L1-190h34L92-34l54-156h33" id="C"/><g id="a"><use transform="matrix(0.05,0,0,0.05,0,0)" xlink:href="#v"/><use transform="matrix(0.05,0,0,0.05,12.950000000000001,0)" xlink:href="#w"/><use transform="matrix(0.05,0,0,0.05,22.950000000000003,0)" xlink:href="#x"/><use transform="matrix(0.05,0,0,0.05,32.95,0)" xlink:href="#y"/><use transform="matrix(0.05,0,0,0.05,36.900000000000006,0)" xlink:href="#z"/><use transform="matrix(0.05,0,0,0.05,45.900000000000006,0)" xlink:href="#A"/><use transform="matrix(0.05,0,0,0.05,50.900000000000006,0)" xlink:href="#B"/><use transform="matrix(0.05,0,0,0.05,56.85,0)" xlink:href="#C"/></g><path d="M87 75C49 33 22-17 22-94c0-76 28-126 65-167h31c-38 41-64 92-64 168S80 34 118 75H87" id="D"/><path d="M100-194c62-1 85 37 85 99 1 63-27 99-86 99S16-35 15-95c0-66 28-99 85-99zM99-20c44 1 53-31 53-75 0-43-8-75-51-75s-53 32-53 75 10 74 51 75" id="E"/><path d="M115-194c53 0 69 39 70 98 0 66-23 100-70 100C84 3 66-7 56-30L54 0H23l1-261h32v101c10-23 28-34 59-34zm-8 174c40 0 45-34 45-75 0-40-5-75-45-74-42 0-51 32-51 76 0 43 10 73 51 73" id="F"/><path d="M24-231v-30h32v30H24zM-9 49c24 4 33-6 33-30v-209h32V24c2 40-23 58-65 49V49" id="G"/><path d="M33-261c38 41 65 92 65 168S71 34 33 75H2C39 34 66-17 66-93S39-220 2-261h31" id="H"/><g id="b"><use transform="matrix(0.05,0,0,0.05,0,0)" xlink:href="#B"/><use transform="matrix(0.05,0,0,0.05,5.95,0)" xlink:href="#w"/><use transform="matrix(0.05,0,0,0.05,15.949999999999998,0)" xlink:href="#x"/><use transform="matrix(0.05,0,0,0.05,25.950000000000003,0)" xlink:href="#y"/><use transform="matrix(0.05,0,0,0.05,29.899999999999995,0)" xlink:href="#z"/><use transform="matrix(0.05,0,0,0.05,38.9,0)" xlink:href="#A"/><use transform="matrix(0.05,0,0,0.05,43.9,0)" xlink:href="#w"/><use transform="matrix(0.05,0,0,0.05,53.900000000000006,0)" xlink:href="#B"/><use transform="matrix(0.05,0,0,0.05,59.85,0)" xlink:href="#D"/><use transform="matrix(0.05,0,0,0.05,65.8,0)" xlink:href="#E"/><use transform="matrix(0.05,0,0,0.05,75.8,0)" xlink:href="#F"/><use transform="matrix(0.05,0,0,0.05,85.8,0)" xlink:href="#G"/><use transform="matrix(0.05,0,0,0.05,89.75,0)" xlink:href="#H"/></g><g id="c"><use transform="matrix(0.05,0,0,0.05,0,0)" xlink:href="#E"/><use transform="matrix(0.05,0,0,0.05,10,0)" xlink:href="#F"/><use transform="matrix(0.05,0,0,0.05,20,0)" xlink:href="#G"/></g><path d="M141-36C126-15 110 5 73 4 37 3 15-17 15-53c-1-64 63-63 125-63 3-35-9-54-41-54-24 1-41 7-42 31l-33-3c5-37 33-52 76-52 45 0 72 20 72 64v82c-1 20 7 32 28 27v20c-31 9-61-2-59-35zM48-53c0 20 12 33 32 33 41-3 63-29 60-74-43 2-92-5-92 41" id="I"/><path d="M115-194c55 1 70 41 70 98S169 2 115 4C84 4 66-9 55-30l1 105H24l-1-265h31l2 30c10-21 28-34 59-34zm-8 174c40 0 45-34 45-75s-6-73-45-74c-42 0-51 32-51 76 0 43 10 73 51 73" id="J"/><path d="M24 0v-261h32V0H24" id="K"/><path d="M117-194c89-4 53 116 60 194h-32v-121c0-31-8-49-39-48C34-167 62-67 57 0H25l-1-190h30c1 10-1 24 2 32 11-22 29-35 61-36" id="L"/><g id="d"><use transform="matrix(0.05,0,0,0.05,0,0)" xlink:href="#I"/><use transform="matrix(0.05,0,0,0.05,10,0)" xlink:href="#J"/><use transform="matrix(0.05,0,0,0.05,20,0)" xlink:href="#J"/><use transform="matrix(0.05,0,0,0.05,30,0)" xlink:href="#K"/><use transform="matrix(0.05,0,0,0.05,33.95,0)" xlink:href="#C"/><use transform="matrix(0.05,0,0,0.05,42.95,0)" xlink:href="#v"/><use transform="matrix(0.05,0,0,0.05,55.900000000000006,0)" xlink:href="#w"/><use transform="matrix(0.05,0,0,0.05,65.9,0)" xlink:href="#x"/><use transform="matrix(0.05,0,0,0.05,75.9,0)" xlink:href="#y"/><use transform="matrix(0.05,0,0,0.05,79.85000000000001,0)" xlink:href="#z"/><use transform="matrix(0.05,0,0,0.05,88.85000000000001,0)" xlink:href="#A"/><use transform="matrix(0.05,0,0,0.05,93.85000000000001,0)" xlink:href="#B"/><use transform="matrix(0.05,0,0,0.05,99.80000000000001,0)" xlink:href="#I"/><use transform="matrix(0.05,0,0,0.05,109.80000000000001,0)" xlink:href="#A"/><use transform="matrix(0.05,0,0,0.05,114.80000000000001,0)" xlink:href="#y"/><use transform="matrix(0.05,0,0,0.05,118.75,0)" xlink:href="#E"/><use transform="matrix(0.05,0,0,0.05,128.75,0)" xlink:href="#L"/><use transform="matrix(0.05,0,0,0.05,138.75,0)" xlink:href="#z"/><use transform="matrix(0.05,0,0,0.05,147.75,0)" xlink:href="#D"/><use transform="matrix(0.05,0,0,0.05,153.7,0)" xlink:href="#E"/><use transform="matrix(0.05,0,0,0.05,163.7,0)" xlink:href="#F"/><use transform="matrix(0.05,0,0,0.05,173.7,0)" xlink:href="#G"/><use transform="matrix(0.05,0,0,0.05,177.64999999999998,0)" xlink:href="#H"/></g><g id="e"><use transform="matrix(0.05,0,0,0.05,0,0)" xlink:href="#B"/><use transform="matrix(0.05,0,0,0.05,5.95,0)" xlink:href="#w"/><use transform="matrix(0.05,0,0,0.05,15.949999999999998,0)" xlink:href="#x"/><use transform="matrix(0.05,0,0,0.05,25.950000000000003,0)" xlink:href="#y"/><use transform="matrix(0.05,0,0,0.05,29.899999999999995,0)" xlink:href="#z"/><use transform="matrix(0.05,0,0,0.05,38.9,0)" xlink:href="#A"/><use transform="matrix(0.05,0,0,0.05,43.9,0)" xlink:href="#B"/><use transform="matrix(0.05,0,0,0.05,49.85,0)" xlink:href="#C"/></g><path d="M33-154v-36h34v36H33zM33 0v-36h34V0H33" id="M"/><use transform="matrix(0.05,0,0,0.05,0,0)" xlink:href="#M" id="f"/><path d="M240 0l2-218c-23 76-54 145-80 218h-23L58-218 59 0H30v-248h44l77 211c21-75 51-140 76-211h43V0h-30" id="N"/><path d="M18-100v-36l175-74v27L42-118l151 64v27" id="O"/><path d="M185-189c-5-48-123-54-124 2 14 75 158 14 163 119 3 78-121 87-175 55-17-10-28-26-33-46l33-7c5 56 141 63 141-1 0-78-155-14-162-118-5-82 145-84 179-34 5 7 8 16 11 25" id="P"/><path d="M68-38c1 34 0 65-14 84H32c9-13 17-26 17-46H33v-38h35" id="Q"/><path d="M140-251c81 0 123 46 123 126C263-46 219 4 140 4 59 4 17-45 17-125s42-126 123-126zm0 227c63 0 89-41 89-101s-29-99-89-99c-61 0-89 39-89 99S79-25 140-24" id="R"/><path d="M96-169c-40 0-48 33-48 73s9 75 48 75c24 0 41-14 43-38l32 2c-6 37-31 61-74 61-59 0-76-41-82-99-10-93 101-131 147-64 4 7 5 14 7 22l-32 3c-4-21-16-35-41-35" id="S"/><path d="M18-27v-27l151-64-151-65v-27l175 74v36" id="T"/><g id="g"><use transform="matrix(0.05,0,0,0.05,0,0)" xlink:href="#N"/><use transform="matrix(0.05,0,0,0.05,14.950000000000001,0)" xlink:href="#I"/><use transform="matrix(0.05,0,0,0.05,24.950000000000003,0)" xlink:href="#J"/><use transform="matrix(0.05,0,0,0.05,34.95,0)" xlink:href="#O"/><use transform="matrix(0.05,0,0,0.05,45.45,0)" xlink:href="#P"/><use transform="matrix(0.05,0,0,0.05,57.45,0)" xlink:href="#A"/><use transform="matrix(0.05,0,0,0.05,62.45,0)" xlink:href="#B"/><use transform="matrix(0.05,0,0,0.05,68.4,0)" xlink:href="#y"/><use transform="matrix(0.05,0,0,0.05,72.35000000000001,0)" xlink:href="#L"/><use transform="matrix(0.05,0,0,0.05,82.35000000000001,0)" xlink:href="#x"/><use transform="matrix(0.05,0,0,0.05,92.35000000000001,0)" xlink:href="#Q"/><use transform="matrix(0.05,0,0,0.05,97.35000000000001,0)" xlink:href="#R"/><use transform="matrix(0.05,0,0,0.05,111.35000000000001,0)" xlink:href="#F"/><use transform="matrix(0.05,0,0,0.05,121.35000000000001,0)" xlink:href="#G"/><use transform="matrix(0.05,0,0,0.05,125.30000000000001,0)" xlink:href="#w"/><use transform="matrix(0.05,0,0,0.05,135.3,0)" xlink:href="#S"/><use transform="matrix(0.05,0,0,0.05,144.3,0)" xlink:href="#A"/><use transform="matrix(0.05,0,0,0.05,149.3,0)" xlink:href="#T"/></g><path d="M84 4C-5 8 30-112 23-190h32v120c0 31 7 50 39 49 72-2 45-101 50-169h31l1 190h-30c-1-10 1-25-2-33-11 22-28 36-60 37" id="U"/><path d="M210-169c-67 3-38 105-44 169h-31v-121c0-29-5-50-35-48C34-165 62-65 56 0H25l-1-190h30c1 10-1 24 2 32 10-44 99-50 107 0 11-21 27-35 58-36 85-2 47 119 55 194h-31v-121c0-29-5-49-35-48" id="V"/><g id="h"><use transform="matrix(0.05,0,0,0.05,0,0)" xlink:href="#J"/><use transform="matrix(0.05,0,0,0.05,10,0)" xlink:href="#U"/><use transform="matrix(0.05,0,0,0.05,20,0)" xlink:href="#A"/><use transform="matrix(0.05,0,0,0.05,25,0)" xlink:href="#D"/><use transform="matrix(0.05,0,0,0.05,30.950000000000003,0)" xlink:href="#L"/><use transform="matrix(0.05,0,0,0.05,40.95,0)" xlink:href="#I"/><use transform="matrix(0.05,0,0,0.05,50.95,0)" xlink:href="#V"/><use transform="matrix(0.05,0,0,0.05,65.9,0)" xlink:href="#w"/><use transform="matrix(0.05,0,0,0.05,75.9,0)" xlink:href="#Q"/></g><g id="i"><use transform="matrix(0.05,0,0,0.05,0,0)" xlink:href="#E"/><use transform="matrix(0.05,0,0,0.05,10,0)" xlink:href="#F"/><use transform="matrix(0.05,0,0,0.05,20,0)" xlink:href="#G"/><use transform="matrix(0.05,0,0,0.05,23.95,0)" xlink:href="#H"/></g><g id="j"><use transform="matrix(0.05,0,0,0.05,0,0)" xlink:href="#B"/><use transform="matrix(0.05,0,0,0.05,5.95,0)" xlink:href="#w"/><use transform="matrix(0.05,0,0,0.05,15.949999999999998,0)" xlink:href="#x"/><use transform="matrix(0.05,0,0,0.05,25.950000000000003,0)" xlink:href="#y"/><use transform="matrix(0.05,0,0,0.05,29.899999999999995,0)" xlink:href="#z"/><use transform="matrix(0.05,0,0,0.05,38.9,0)" xlink:href="#A"/><use transform="matrix(0.05,0,0,0.05,43.9,0)" xlink:href="#w"/><use transform="matrix(0.05,0,0,0.05,53.900000000000006,0)" xlink:href="#B"/><use transform="matrix(0.05,0,0,0.05,59.85,0)" xlink:href="#D"/><use transform="matrix(0.05,0,0,0.05,65.8,0)" xlink:href="#L"/><use transform="matrix(0.05,0,0,0.05,75.8,0)" xlink:href="#I"/><use transform="matrix(0.05,0,0,0.05,85.8,0)" xlink:href="#V"/><use transform="matrix(0.05,0,0,0.05,100.75,0)" xlink:href="#w"/><use transform="matrix(0.05,0,0,0.05,110.75,0)" xlink:href="#H"/></g><path d="M85-194c31 0 48 13 60 33l-1-100h32l1 261h-30c-2-10 0-23-3-31C134-8 116 4 85 4 32 4 16-35 15-94c0-66 23-100 70-100zm9 24c-40 0-46 34-46 75 0 40 6 74 45 74 42 0 51-32 51-76 0-42-9-74-50-73" id="W"/><g id="k"><use transform="matrix(0.05,0,0,0.05,0,0)" xlink:href="#W"/><use transform="matrix(0.05,0,0,0.05,10,0)" xlink:href="#w"/><use transform="matrix(0.05,0,0,0.05,20,0)" xlink:href="#S"/><use transform="matrix(0.05,0,0,0.05,29,0)" xlink:href="#E"/><use transform="matrix(0.05,0,0,0.05,39,0)" xlink:href="#B"/><use transform="matrix(0.05,0,0,0.05,44.95,0)" xlink:href="#I"/><use transform="matrix(0.05,0,0,0.05,54.95,0)" xlink:href="#A"/><use transform="matrix(0.05,0,0,0.05,59.95,0)" xlink:href="#E"/><use transform="matrix(0.05,0,0,0.05,69.95,0)" xlink:href="#B"/></g><g id="l"><use transform="matrix(0.05,0,0,0.05,0,0)" xlink:href="#W"/><use transform="matrix(0.05,0,0,0.05,10,0)" xlink:href="#w"/><use transform="matrix(0.05,0,0,0.05,20,0)" xlink:href="#S"/><use transform="matrix(0.05,0,0,0.05,29,0)" xlink:href="#E"/><use transform="matrix(0.05,0,0,0.05,39,0)" xlink:href="#B"/><use transform="matrix(0.05,0,0,0.05,44.95,0)" xlink:href="#I"/><use transform="matrix(0.05,0,0,0.05,54.95,0)" xlink:href="#A"/><use transform="matrix(0.05,0,0,0.05,59.95,0)" xlink:href="#E"/><use transform="matrix(0.05,0,0,0.05,69.95,0)" xlink:href="#B"/></g><path d="M63-220v92h138v28H63V0H30v-248h175v28H63" id="X"/><g id="m"><use transform="matrix(0.05,0,0,0.05,0,0)" xlink:href="#X"/><use transform="matrix(0.05,0,0,0.05,10.950000000000001,0)" xlink:href="#U"/><use transform="matrix(0.05,0,0,0.05,20.950000000000003,0)" xlink:href="#L"/><use transform="matrix(0.05,0,0,0.05,30.950000000000003,0)" xlink:href="#S"/><use transform="matrix(0.05,0,0,0.05,39.95,0)" xlink:href="#A"/><use transform="matrix(0.05,0,0,0.05,44.95,0)" xlink:href="#y"/><use transform="matrix(0.05,0,0,0.05,48.900000000000006,0)" xlink:href="#E"/><use transform="matrix(0.05,0,0,0.05,58.900000000000006,0)" xlink:href="#L"/></g><path d="M101-234c-31-9-42 10-38 44h38v23H63V0H32v-167H5v-23h27c-7-52 17-82 69-68v24" id="Y"/><g id="n"><use transform="matrix(0.05,0,0,0.05,0,0)" xlink:href="#W"/><use transform="matrix(0.05,0,0,0.05,10,0)" xlink:href="#w"/><use transform="matrix(0.05,0,0,0.05,20,0)" xlink:href="#Y"/></g><g id="o"><use transform="matrix(0.05,0,0,0.05,0,0)" xlink:href="#W"/><use transform="matrix(0.05,0,0,0.05,10,0)" xlink:href="#w"/><use transform="matrix(0.05,0,0,0.05,20,0)" xlink:href="#S"/><use transform="matrix(0.05,0,0,0.05,29,0)" xlink:href="#E"/><use transform="matrix(0.05,0,0,0.05,39,0)" xlink:href="#B"/><use transform="matrix(0.05,0,0,0.05,44.95,0)" xlink:href="#I"/><use transform="matrix(0.05,0,0,0.05,54.95,0)" xlink:href="#A"/><use transform="matrix(0.05,0,0,0.05,59.95,0)" xlink:href="#E"/><use transform="matrix(0.05,0,0,0.05,69.95,0)" xlink:href="#B"/><use transform="matrix(0.05,0,0,0.05,75.9,0)" xlink:href="#D"/><use transform="matrix(0.05,0,0,0.05,81.85000000000001,0)" xlink:href="#Y"/><use transform="matrix(0.05,0,0,0.05,86.85000000000001,0)" xlink:href="#U"/><use transform="matrix(0.05,0,0,0.05,96.85000000000001,0)" xlink:href="#L"/><use transform="matrix(0.05,0,0,0.05,106.85000000000001,0)" xlink:href="#S"/><use transform="matrix(0.05,0,0,0.05,115.85000000000001,0)" xlink:href="#H"/></g><g id="p"><use transform="matrix(0.05,0,0,0.05,0,0)" xlink:href="#W"/><use transform="matrix(0.05,0,0,0.05,10,0)" xlink:href="#w"/><use transform="matrix(0.05,0,0,0.05,20,0)" xlink:href="#Y"/></g><g id="q"><use transform="matrix(0.05,0,0,0.05,0,0)" xlink:href="#L"/><use transform="matrix(0.05,0,0,0.05,10,0)" xlink:href="#I"/><use transform="matrix(0.05,0,0,0.05,20,0)" xlink:href="#V"/><use transform="matrix(0.05,0,0,0.05,34.95,0)" xlink:href="#w"/></g><path d="M18-150v-26h174v26H18zm0 90v-26h174v26H18" id="Z"/><use transform="matrix(0.05,0,0,0.05,0,0)" xlink:href="#Z" id="r"/><g id="s"><use transform="matrix(0.05,0,0,0.05,0,0)" xlink:href="#L"/><use transform="matrix(0.05,0,0,0.05,10,0)" xlink:href="#I"/><use transform="matrix(0.05,0,0,0.05,20,0)" xlink:href="#V"/><use transform="matrix(0.05,0,0,0.05,34.95,0)" xlink:href="#w"/></g><path d="M32 76v-337h29V76H32" id="aa"/><g id="t"><use transform="matrix(0.05,0,0,0.05,0,0)" xlink:href="#aa"/><use transform="matrix(0.05,0,0,0.05,4.65,0)" xlink:href="#aa"/></g><path d="M33 0v-38h34V0H33" id="ab"/><path d="M-5 72V49h209v23H-5" id="ac"/><g id="u"><use transform="matrix(0.05,0,0,0.05,0,0)" xlink:href="#E"/><use transform="matrix(0.05,0,0,0.05,10,0)" xlink:href="#F"/><use transform="matrix(0.05,0,0,0.05,20,0)" xlink:href="#G"/><use transform="matrix(0.05,0,0,0.05,23.95,0)" xlink:href="#ab"/><use transform="matrix(0.05,0,0,0.05,28.950000000000003,0)" xlink:href="#ac"/><use transform="matrix(0.05,0,0,0.05,38.95,0)" xlink:href="#ac"/><use transform="matrix(0.05,0,0,0.05,48.95,0)" xlink:href="#L"/><use transform="matrix(0.05,0,0,0.05,58.95,0)" xlink:href="#I"/><use transform="matrix(0.05,0,0,0.05,68.95,0)" xlink:href="#V"/><use transform="matrix(0.05,0,0,0.05,83.9,0)" xlink:href="#w"/><use transform="matrix(0.05,0,0,0.05,93.9,0)" xlink:href="#ac"/><use transform="matrix(0.05,0,0,0.05,103.9,0)" xlink:href="#ac"/></g></defs></g></svg>