<svg xmlns="http://www.w3.org/2000/svg" xmlns:xlink="http://www.w3.org/1999/xlink" xmlns:lucid="lucid" width="791" height="420"><g transform="translate(-469 -2780)" lucid:page-tab-id="0_0"><path d="M682.24 2800h140v60h-140z" stroke="#000" stroke-width="2" fill="#fff"/><path d="M662.24 2805h40v20h-40zM662.24 2835h40v20h-40z" stroke="#000" stroke-width="2" fill="#fff"/><use xlink:href="#a" transform="matrix(1,0,0,1,694.2362204725698,2806) translate(23.074999999999996 27.6)"/><path d="M503 2916.4h201.06M503.03 2916.4H502" stroke="#000" stroke-width="2" fill="none"/><path d="M719.32 2916.4l-14.26 4.63v-9.27z" stroke="#000" stroke-width="2"/><use xlink:href="#b" transform="matrix(1,0,0,1,520.4803601908433,2890.7944269128225) translate(0.0049999999999954525 14.4)"/><path d="M720.24 3169h-1.98v-2h1.98zm-9.9 0h-3.95v-2h3.95zm-11.86 0h-3.96v-2h3.96zm-11.87 0h-3.94v-2h3.95zm-11.85 0h-3.96v-2h3.95zm-11.87 0h-3.96v-2h3.96zm-11.87 0h-3.94v-2H651zm-11.85 0h-3.96v-2h3.95zm-11.87 0h-3.96v-2h3.96zm-35.6 0h-3.96v-2h3.96zm-11.87 0h-3.94v-2h3.95zm-11.85 0H564v-2h3.95zm-11.87 0h-3.96v-2h3.96zm-11.87 0h-3.94v-2h3.95zm-11.85 0h-3.96v-2h3.95zm-11.87 0h-1.98v-2h1.98z"/><path d="M721.24 3169h-1.03v-2h1.04zM517.5 3172.64l-14.26-4.64 14.26-4.64z"/><path d="M518.5 3174l-18.5-6 18.5-6zm-12.03-6l10.03 3.26v-6.52z"/><use xlink:href="#c" transform="matrix(1,0,0,1,598.6431102362849,3157.2) translate(0.005000000000000782 14.4)"/><path d="M722.24 2920.12c0-2.76 2.23-5 5-5h30c2.76 0 5 2.24 5 5V3175c0 2.76-2.24 5-5 5h-30c-2.77 0-5-2.24-5-5z" stroke="#000" stroke-width="2" fill-opacity="0"/><path d="M742.24 2862v51.12" stroke="#000" stroke-width="2" fill="none"/><path d="M743.24 2862.03h-2V2861h2z"/><path d="M742.24 2913.1v1.02" stroke="#000" stroke-width="2" fill="none"/><path d="M540 2940h100v20l-10 10h-90z" fill="#fff"/><path d="M640 2940v20l-10 10h-90" stroke="#000" stroke-width="2" fill="none"/><path d="M540 2940h700v200H540z" stroke="#000" stroke-width="2" fill="none"/><use xlink:href="#d" transform="matrix(1,0,0,1,548,2940) translate(0 18.6)"/><use xlink:href="#e" transform="matrix(1,0,0,1,552,2978) translate(0 18.6)"/><use xlink:href="#f" transform="matrix(1,0,0,1,552,2978) translate(10 18.6)"/><use xlink:href="#g" transform="matrix(1,0,0,1,552,2978) translate(35.95 18.6)"/><use xlink:href="#h" transform="matrix(1,0,0,1,552,2978) translate(79.95 18.6)"/><use xlink:href="#i" transform="matrix(1,0,0,1,552,2978) translate(173.75 18.6)"/><use xlink:href="#j" transform="matrix(1,0,0,1,552,2978) translate(192.7 18.6)"/><use xlink:href="#k" transform="matrix(1,0,0,1,552,2978) translate(382.95 18.6)"/><path d="M1017.72 2960h165.5v60h-165.5z" stroke="#000" stroke-width="2" fill="#fff"/><path d="M997.72 2965h40v20h-40zM997.72 2995h40v20h-40z" stroke="#000" stroke-width="2" fill="#fff"/><use xlink:href="#l" transform="matrix(1,0,0,1,1034.8224409451009,2966) translate(15.600000000000001 16.799999999999997)"/><use xlink:href="#m" transform="matrix(1,0,0,1,1034.8224409451009,2966) translate(109.4 16.799999999999997)"/><use xlink:href="#n" transform="matrix(1,0,0,1,1034.8224409451009,2966) translate(30.549999999999997 38.4)"/><path d="M781 3071.5h271.3M781.03 3071.5H780" stroke="#999" stroke-width="2" fill="none"/><path d="M1067.56 3071.5l-14.26 4.65v-9.27z" stroke="#999" stroke-width="2" fill="#999"/><g><use xlink:href="#o" transform="matrix(1,0,0,1,907.47347042707,3045.9125371409773) translate(0.004999999999999005 14.4)"/></g><path d="M1070.47 3075.24c0-2.77 2.24-5 5-5h30c2.76 0 5 2.23 5 5v40.4c0 2.75-2.24 5-5 5h-30c-2.76 0-5-2.25-5-5z" stroke="#666" stroke-width="2" fill-opacity="0"/><path d="M1090.47 3022v46.24" stroke="#999" stroke-width="2" fill="none"/><path d="M1091.47 3022.03h-2V3021h2zM1091.47 3069.24h-2v-1.03h2z" fill="#999"/><defs><path d="M233-177c-1 41-23 64-60 70L243 0h-38l-65-103H63V0H30v-248c88 3 205-21 203 71zM63-129c60-2 137 13 137-47 0-61-80-42-137-45v92" id="p"/><path d="M100-194c63 0 86 42 84 106H49c0 40 14 67 53 68 26 1 43-12 49-29l28 8c-11 28-37 45-77 45C44 4 14-33 15-96c1-61 26-98 85-98zm52 81c6-60-76-77-97-28-3 7-6 17-6 28h103" id="q"/><path d="M177-190C167-65 218 103 67 71c-23-6-38-20-44-43l32-5c15 47 100 32 89-28v-30C133-14 115 1 83 1 29 1 15-40 15-95c0-56 16-97 71-98 29-1 48 16 59 35 1-10 0-23 2-32h30zM94-22c36 0 50-32 50-73 0-42-14-75-50-75-39 0-46 34-46 75s6 73 46 73" id="r"/><path d="M24-231v-30h32v30H24zM24 0v-190h32V0H24" id="s"/><path d="M135-143c-3-34-86-38-87 0 15 53 115 12 119 90S17 21 10-45l28-5c4 36 97 45 98 0-10-56-113-15-118-90-4-57 82-63 122-42 12 7 21 19 24 35" id="t"/><path d="M59-47c-2 24 18 29 38 22v24C64 9 27 4 27-40v-127H5v-23h24l9-43h21v43h35v23H59v120" id="u"/><path d="M114-163C36-179 61-72 57 0H25l-1-190h30c1 12-1 29 2 39 6-27 23-49 58-41v29" id="v"/><path d="M179-190L93 31C79 59 56 82 12 73V49c39 6 53-20 64-50L1-190h34L92-34l54-156h33" id="w"/><g id="a"><use transform="matrix(0.05,0,0,0.05,0,0)" xlink:href="#p"/><use transform="matrix(0.05,0,0,0.05,12.950000000000001,0)" xlink:href="#q"/><use transform="matrix(0.05,0,0,0.05,22.950000000000003,0)" xlink:href="#r"/><use transform="matrix(0.05,0,0,0.05,32.95,0)" xlink:href="#s"/><use transform="matrix(0.05,0,0,0.05,36.900000000000006,0)" xlink:href="#t"/><use transform="matrix(0.05,0,0,0.05,45.900000000000006,0)" xlink:href="#u"/><use transform="matrix(0.05,0,0,0.05,50.900000000000006,0)" xlink:href="#v"/><use transform="matrix(0.05,0,0,0.05,56.85,0)" xlink:href="#w"/></g><path d="M141-36C126-15 110 5 73 4 37 3 15-17 15-53c-1-64 63-63 125-63 3-35-9-54-41-54-24 1-41 7-42 31l-33-3c5-37 33-52 76-52 45 0 72 20 72 64v82c-1 20 7 32 28 27v20c-31 9-61-2-59-35zM48-53c0 20 12 33 32 33 41-3 63-29 60-74-43 2-92-5-92 41" id="x"/><path d="M115-194c55 1 70 41 70 98S169 2 115 4C84 4 66-9 55-30l1 105H24l-1-265h31l2 30c10-21 28-34 59-34zm-8 174c40 0 45-34 45-75s-6-73-45-74c-42 0-51 32-51 76 0 43 10 73 51 73" id="y"/><path d="M24 0v-261h32V0H24" id="z"/><path d="M100-194c62-1 85 37 85 99 1 63-27 99-86 99S16-35 15-95c0-66 28-99 85-99zM99-20c44 1 53-31 53-75 0-43-8-75-51-75s-53 32-53 75 10 74 51 75" id="A"/><path d="M117-194c89-4 53 116 60 194h-32v-121c0-31-8-49-39-48C34-167 62-67 57 0H25l-1-190h30c1 10-1 24 2 32 11-22 29-35 61-36" id="B"/><path d="M87 75C49 33 22-17 22-94c0-76 28-126 65-167h31c-38 41-64 92-64 168S80 34 118 75H87" id="C"/><path d="M115-194c53 0 69 39 70 98 0 66-23 100-70 100C84 3 66-7 56-30L54 0H23l1-261h32v101c10-23 28-34 59-34zm-8 174c40 0 45-34 45-75 0-40-5-75-45-74-42 0-51 32-51 76 0 43 10 73 51 73" id="D"/><path d="M24-231v-30h32v30H24zM-9 49c24 4 33-6 33-30v-209h32V24c2 40-23 58-65 49V49" id="E"/><path d="M33-261c38 41 65 92 65 168S71 34 33 75H2C39 34 66-17 66-93S39-220 2-261h31" id="F"/><g id="b"><use transform="matrix(0.05,0,0,0.05,0,0)" xlink:href="#x"/><use transform="matrix(0.05,0,0,0.05,10,0)" xlink:href="#y"/><use transform="matrix(0.05,0,0,0.05,20,0)" xlink:href="#y"/><use transform="matrix(0.05,0,0,0.05,30,0)" xlink:href="#z"/><use transform="matrix(0.05,0,0,0.05,33.95,0)" xlink:href="#w"/><use transform="matrix(0.05,0,0,0.05,42.95,0)" xlink:href="#p"/><use transform="matrix(0.05,0,0,0.05,55.900000000000006,0)" xlink:href="#q"/><use transform="matrix(0.05,0,0,0.05,65.9,0)" xlink:href="#r"/><use transform="matrix(0.05,0,0,0.05,75.9,0)" xlink:href="#s"/><use transform="matrix(0.05,0,0,0.05,79.85000000000001,0)" xlink:href="#t"/><use transform="matrix(0.05,0,0,0.05,88.85000000000001,0)" xlink:href="#u"/><use transform="matrix(0.05,0,0,0.05,93.85000000000001,0)" xlink:href="#v"/><use transform="matrix(0.05,0,0,0.05,99.80000000000001,0)" xlink:href="#x"/><use transform="matrix(0.05,0,0,0.05,109.80000000000001,0)" xlink:href="#u"/><use transform="matrix(0.05,0,0,0.05,114.80000000000001,0)" xlink:href="#s"/><use transform="matrix(0.05,0,0,0.05,118.75,0)" xlink:href="#A"/><use transform="matrix(0.05,0,0,0.05,128.75,0)" xlink:href="#B"/><use transform="matrix(0.05,0,0,0.05,138.75,0)" xlink:href="#t"/><use transform="matrix(0.05,0,0,0.05,147.75,0)" xlink:href="#C"/><use transform="matrix(0.05,0,0,0.05,153.7,0)" xlink:href="#A"/><use transform="matrix(0.05,0,0,0.05,163.7,0)" xlink:href="#D"/><use transform="matrix(0.05,0,0,0.05,173.7,0)" xlink:href="#E"/><use transform="matrix(0.05,0,0,0.05,177.64999999999998,0)" xlink:href="#F"/></g><g id="c"><use transform="matrix(0.05,0,0,0.05,0,0)" xlink:href="#A"/><use transform="matrix(0.05,0,0,0.05,10,0)" xlink:href="#D"/><use transform="matrix(0.05,0,0,0.05,20,0)" xlink:href="#E"/></g><path d="M30 0v-248h33v221h125V0H30" id="G"/><g id="d"><use transform="matrix(0.05,0,0,0.05,0,0)" xlink:href="#G"/><use transform="matrix(0.05,0,0,0.05,10,0)" xlink:href="#A"/><use transform="matrix(0.05,0,0,0.05,20,0)" xlink:href="#A"/><use transform="matrix(0.05,0,0,0.05,30,0)" xlink:href="#y"/></g><path d="M26 75v-336h71v23H56V52h41v23H26" id="H"/><use transform="matrix(0.05,0,0,0.05,0,0)" xlink:href="#H" id="e"/><path d="M101-234c-31-9-42 10-38 44h38v23H63V0H32v-167H5v-23h27c-7-52 17-82 69-68v24" id="I"/><g id="f"><use transform="matrix(0.05,0,0,0.05,0,0)" xlink:href="#I"/><use transform="matrix(0.05,0,0,0.05,5,0)" xlink:href="#A"/><use transform="matrix(0.05,0,0,0.05,15,0)" xlink:href="#v"/></g><path d="M96-169c-40 0-48 33-48 73s9 75 48 75c24 0 41-14 43-38l32 2c-6 37-31 61-74 61-59 0-76-41-82-99-10-93 101-131 147-64 4 7 5 14 7 22l-32 3c-4-21-16-35-41-35" id="J"/><path d="M106-169C34-169 62-67 57 0H25v-261h32l-1 103c12-21 28-36 61-36 89 0 53 116 60 194h-32v-121c2-32-8-49-39-48" id="K"/><g id="g"><use transform="matrix(0.05,0,0,0.05,0,0)" xlink:href="#q"/><use transform="matrix(0.05,0,0,0.05,10,0)" xlink:href="#x"/><use transform="matrix(0.05,0,0,0.05,20,0)" xlink:href="#J"/><use transform="matrix(0.05,0,0,0.05,29,0)" xlink:href="#K"/></g><g id="h"><use transform="matrix(0.05,0,0,0.05,0,0)" xlink:href="#v"/><use transform="matrix(0.05,0,0,0.05,5.95,0)" xlink:href="#q"/><use transform="matrix(0.05,0,0,0.05,15.949999999999998,0)" xlink:href="#r"/><use transform="matrix(0.05,0,0,0.05,25.950000000000003,0)" xlink:href="#s"/><use transform="matrix(0.05,0,0,0.05,29.899999999999995,0)" xlink:href="#t"/><use transform="matrix(0.05,0,0,0.05,38.9,0)" xlink:href="#u"/><use transform="matrix(0.05,0,0,0.05,43.9,0)" xlink:href="#v"/><use transform="matrix(0.05,0,0,0.05,49.85,0)" xlink:href="#x"/><use transform="matrix(0.05,0,0,0.05,59.85,0)" xlink:href="#u"/><use transform="matrix(0.05,0,0,0.05,64.85,0)" xlink:href="#s"/><use transform="matrix(0.05,0,0,0.05,68.8,0)" xlink:href="#A"/><use transform="matrix(0.05,0,0,0.05,78.8,0)" xlink:href="#B"/></g><g id="i"><use transform="matrix(0.05,0,0,0.05,0,0)" xlink:href="#s"/><use transform="matrix(0.05,0,0,0.05,3.95,0)" xlink:href="#B"/></g><path d="M143 0L79-87 56-68V0H24v-261h32v163l83-92h37l-77 82L181 0h-38" id="L"/><path d="M101-251c82-7 93 87 43 132L82-64C71-53 59-42 53-27h129V0H18c2-99 128-94 128-182 0-28-16-43-45-43s-46 15-49 41l-32-3c6-41 34-60 81-64" id="M"/><path d="M16-82v-28h88v28H16" id="N"/><path d="M33 0v-38h34V0H33" id="O"/><g id="j"><use transform="matrix(0.05,0,0,0.05,0,0)" xlink:href="#L"/><use transform="matrix(0.05,0,0,0.05,9,0)" xlink:href="#M"/><use transform="matrix(0.05,0,0,0.05,19,0)" xlink:href="#N"/><use transform="matrix(0.05,0,0,0.05,24.95,0)" xlink:href="#v"/><use transform="matrix(0.05,0,0,0.05,30.899999999999995,0)" xlink:href="#q"/><use transform="matrix(0.05,0,0,0.05,40.9,0)" xlink:href="#r"/><use transform="matrix(0.05,0,0,0.05,50.9,0)" xlink:href="#s"/><use transform="matrix(0.05,0,0,0.05,54.85,0)" xlink:href="#t"/><use transform="matrix(0.05,0,0,0.05,63.85,0)" xlink:href="#u"/><use transform="matrix(0.05,0,0,0.05,68.85,0)" xlink:href="#v"/><use transform="matrix(0.05,0,0,0.05,74.8,0)" xlink:href="#w"/><use transform="matrix(0.05,0,0,0.05,82.45,0)" xlink:href="#O"/><use transform="matrix(0.05,0,0,0.05,87.45,0)" xlink:href="#v"/><use transform="matrix(0.05,0,0,0.05,93.4,0)" xlink:href="#q"/><use transform="matrix(0.05,0,0,0.05,103.4,0)" xlink:href="#r"/><use transform="matrix(0.05,0,0,0.05,113.4,0)" xlink:href="#s"/><use transform="matrix(0.05,0,0,0.05,117.35000000000001,0)" xlink:href="#t"/><use transform="matrix(0.05,0,0,0.05,126.35000000000001,0)" xlink:href="#u"/><use transform="matrix(0.05,0,0,0.05,131.35000000000002,0)" xlink:href="#x"/><use transform="matrix(0.05,0,0,0.05,141.35000000000002,0)" xlink:href="#v"/><use transform="matrix(0.05,0,0,0.05,147.3,0)" xlink:href="#u"/><use transform="matrix(0.05,0,0,0.05,152.3,0)" xlink:href="#s"/><use transform="matrix(0.05,0,0,0.05,156.25,0)" xlink:href="#A"/><use transform="matrix(0.05,0,0,0.05,166.25,0)" xlink:href="#B"/><use transform="matrix(0.05,0,0,0.05,176.25,0)" xlink:href="#t"/></g><path d="M3 75V52h41v-290H3v-23h71V75H3" id="P"/><use transform="matrix(0.05,0,0,0.05,0,0)" xlink:href="#P" id="k"/><g id="l"><use transform="matrix(0.05,0,0,0.05,0,0)" xlink:href="#v"/><use transform="matrix(0.05,0,0,0.05,5.95,0)" xlink:href="#q"/><use transform="matrix(0.05,0,0,0.05,15.949999999999998,0)" xlink:href="#r"/><use transform="matrix(0.05,0,0,0.05,25.950000000000003,0)" xlink:href="#s"/><use transform="matrix(0.05,0,0,0.05,29.899999999999995,0)" xlink:href="#t"/><use transform="matrix(0.05,0,0,0.05,38.9,0)" xlink:href="#u"/><use transform="matrix(0.05,0,0,0.05,43.9,0)" xlink:href="#v"/><use transform="matrix(0.05,0,0,0.05,49.85,0)" xlink:href="#x"/><use transform="matrix(0.05,0,0,0.05,59.85,0)" xlink:href="#u"/><use transform="matrix(0.05,0,0,0.05,64.85,0)" xlink:href="#s"/><use transform="matrix(0.05,0,0,0.05,68.8,0)" xlink:href="#A"/><use transform="matrix(0.05,0,0,0.05,78.8,0)" xlink:href="#B"/></g><path d="M33-154v-36h34v36H33zM33 0v-36h34V0H33" id="Q"/><use transform="matrix(0.05,0,0,0.05,0,0)" xlink:href="#Q" id="m"/><path d="M63-220v92h138v28H63V0H30v-248h175v28H63" id="R"/><path d="M84 4C-5 8 30-112 23-190h32v120c0 31 7 50 39 49 72-2 45-101 50-169h31l1 190h-30c-1-10 1-25-2-33-11 22-28 36-60 37" id="S"/><g id="n"><use transform="matrix(0.05,0,0,0.05,0,0)" xlink:href="#R"/><use transform="matrix(0.05,0,0,0.05,10.950000000000001,0)" xlink:href="#S"/><use transform="matrix(0.05,0,0,0.05,20.950000000000003,0)" xlink:href="#B"/><use transform="matrix(0.05,0,0,0.05,30.950000000000003,0)" xlink:href="#J"/><use transform="matrix(0.05,0,0,0.05,39.95,0)" xlink:href="#u"/><use transform="matrix(0.05,0,0,0.05,44.95,0)" xlink:href="#s"/><use transform="matrix(0.05,0,0,0.05,48.900000000000006,0)" xlink:href="#A"/><use transform="matrix(0.05,0,0,0.05,58.900000000000006,0)" xlink:href="#B"/></g><g id="o"><use transform="matrix(0.05,0,0,0.05,0,0)" xlink:href="#C"/><use transform="matrix(0.05,0,0,0.05,5.95,0)" xlink:href="#A"/><use transform="matrix(0.05,0,0,0.05,15.949999999999998,0)" xlink:href="#y"/><use transform="matrix(0.05,0,0,0.05,25.950000000000003,0)" xlink:href="#E"/><use transform="matrix(0.05,0,0,0.05,29.899999999999995,0)" xlink:href="#F"/></g></defs></g></svg>